template.ufo
<glyph name="arKashida" format="1">
  <advance width="204"/>
  <unicode hex="0640"/>
  <note>
    uni0640
  </note>
  <outline>
    <contour>
      <point x="-4" y="179" type="line"/>
      <point x="-4" y="0" type="line"/>
      <point x="208" y="0" type="line"/>
      <point x="208" y="179" type="line"/>
    </contour>
  </outline>
</glyph>
<glyph name="diDammatan" format="1">
  <unicode hex="064C"/>
  <note>
    uni064C
  </note>
  <outline>
    <contour>
      <point x="79" y="91"/>
      <point x="75" y="98"/>
      <point x="59" y="110" type="curve"/>
      <point x="70" y="137" type="line"/>
      <point x="73" y="146"/>
      <point x="75" y="155"/>
      <point x="75" y="166" type="curve" smooth="yes"/>
      <point x="75" y="183"/>
      <point x="57" y="205"/>
      <point x="42" y="205" type="curve" smooth="yes"/>
      <point x="13" y="205"/>
      <point x="-18" y="166"/>
      <point x="-18" y="133" type="curve" smooth="yes"/>
      <point x="-18" y="128"/>
      <point x="-16" y="120"/>
      <point x="-11" y="109" type="curve"/>
      <point x="-4" y="100"/>
      <point x="5" y="92"/>
      <point x="15" y="87" type="curve"/>
      <point x="2" y="73"/>
      <point x="-8" y="63"/>
      <point x="-17" y="58" type="curve"/>
      <point x="-23" y="53"/>
      <point x="-33" y="48"/>
      <point x="-46" y="43" type="curve"/>
      <point x="-44" y="74" type="line"/>
      <point x="-43" y="88" type="line"/>
      <point x="-43" y="120"/>
      <point x="-55" y="137"/>
      <point x="-76" y="137" type="curve" smooth="yes"/>
      <point x="-99" y="137"/>
      <point x="-117" y="108"/>
      <point x="-117" y="83" type="curve"/>
      <point x="-116" y="72" type="line"/>
      <point x="-112" y="58" type="line"/>
      <point x="-109" y="79"/>
      <point x="-97" y="95"/>
      <point x="-88" y="95" type="curve" smooth="yes"/>
      <point x="-75" y="95"/>
      <point x="-64" y="75"/>
      <point x="-64" y="68" type="curve"/>
      <point x="-65" y="57" type="line"/>
      <point x="-67" y="46" type="line"/>
      <point x="-75" y="27" type="line"/>
      <point x="-85" y="5" type="line"/>
      <point x="-58" y="12"/>
      <point x="-38" y="18"/>
      <point x="-27" y="25" type="curve"/>
      <point x="-4" y="41"/>
      <point x="15" y="58"/>
      <point x="32" y="76" type="curve"/>
      <point x="56" y="59" type="line"/>
      <point x="77" y="47" type="line"/>
      <point x="78" y="76" type="line" smooth="yes"/>
    </contour>
    <contour>
      <point x="39" y="127" type="line"/>
      <point x="21" y="140" type="line"/>
      <point x="12" y="147"/>
      <point x="8" y="154"/>
      <point x="8" y="161" type="curve"/>
      <point x="11" y="166"/>
      <point x="13" y="169"/>
      <point x="15" y="170" type="curve" smooth="yes"/>
      <point x="17" y="171"/>
      <point x="19" y="172"/>
      <point x="21" y="172" type="curve" smooth="yes"/>
      <point x="33" y="172"/>
      <point x="41" y="162"/>
      <point x="41" y="146" type="curve"/>
      <point x="40" y="136" type="line"/>
    </contour>
    <contour>
      <point x="0" y="0" type="move" name="_markAboveDot"/>
    </contour>
    <contour>
      <point x="-1.1368683772161603e-13" y="-0.914634146341541" type="move" name="_markAbove"/>
    </contour>
  </outline>
</glyph>
<glyph name="diDamma" format="1">
  <unicode hex="064F"/>
  <note>
    uni064F
  </note>
  <outline>
    <contour>
      <point x="56" y="126" type="line"/>
      <point x="60" y="136" type="line"/>
      <point x="61" y="142" type="line"/>
      <point x="64" y="149"/>
      <point x="65" y="154"/>
      <point x="65" y="157" type="curve" smooth="yes"/>
      <point x="65" y="169" type="line" smooth="yes"/>
      <point x="65" y="198"/>
      <point x="54" y="212"/>
      <point x="32" y="212" type="curve" smooth="yes"/>
      <point x="17" y="212"/>
      <point x="5" y="204"/>
      <point x="-7" y="184" type="curve" smooth="yes"/>
      <point x="-19" y="163"/>
      <point x="-25" y="145"/>
      <point x="-25" y="130" type="curve"/>
      <point x="-24" y="129"/>
      <point x="-24" y="126"/>
      <point x="-24" y="122" type="curve"/>
      <point x="-22" y="117" type="line"/>
      <point x="-18" y="108" type="line"/>
      <point x="-13" y="101"/>
      <point x="-6" y="94"/>
      <point x="5" y="86" type="curve"/>
      <point x="-25" y="59"/>
      <point x="-43" y="44"/>
      <point x="-48" y="40" type="curve"/>
      <point x="-71" y="25" type="line"/>
      <point x="-85" y="16" type="line"/>
      <point x="-99" y="10" type="line"/>
      <point x="-87" y="6" type="line"/>
      <point x="-83" y="5"/>
      <point x="-77" y="4"/>
      <point x="-70" y="4" type="curve" smooth="yes"/>
      <point x="-55" y="4"/>
      <point x="-39" y="11"/>
      <point x="-21" y="25" type="curve"/>
      <point x="-2" y="42"/>
      <point x="13" y="58"/>
      <point x="26" y="74" type="curve"/>
      <point x="47" y="60" type="line"/>
      <point x="65" y="49" type="line"/>
      <point x="69" y="97" type="line"/>
      <point x="50" y="112" type="line"/>
    </contour>
    <contour>
      <point x="35" y="135"/>
      <point x="34" y="130"/>
      <point x="32" y="123" type="curve"/>
      <point x="19" y="133"/>
      <point x="10" y="140"/>
      <point x="6" y="144" type="curve"/>
      <point x="2" y="149"/>
      <point x="0" y="154"/>
      <point x="0" y="160" type="curve"/>
      <point x="3" y="167" type="line"/>
      <point x="6" y="169" type="line"/>
      <point x="9" y="170" type="line"/>
      <point x="22" y="170"/>
      <point x="35" y="155"/>
      <point x="35" y="140" type="curve" smooth="yes"/>
    </contour>
    <contour>
      <point x="0.020388139736155608" y="0.31974124017597205" type="move" name="_markAbove"/>
    </contour>
    <contour>
      <point x="0.8536585365852716" y="-0.9268292682929768" type="move" name="_markAboveDot"/>
    </contour>
  </outline>
</glyph>
<glyph name="diKasra" format="1">
  <unicode hex="0650"/>
  <note>
    uni0650
  </note>
  <outline>
    <contour>
      <point x="-86.0" y="-133.21036585365846" type="curve"/>
      <point x="62.0" y="-49.21036585365846" type="line" smooth="yes"/>
      <point x="73.0" y="-43.21036585365846"/>
      <point x="79.0" y="-29.21036585365846"/>
      <point x="79.0" y="-7.210365853658459" type="curve"/>
      <point x="-54.0" y="-84.21036585365846" type="line" smooth="yes"/>
      <point x="-82.0" y="-100.21036585365846"/>
      <point x="-86.0" y="-109.21036585365846"/>
    </contour>
    <contour>
      <point x="0.17987804878055158" y="-4.009146341463293" type="move" name="_markBelow"/>
    </contour>
    <contour>
      <point x="0.3780487804878021" y="-1.6036585365850442" type="move" name="_markBelowDot"/>
    </contour>
  </outline>
</glyph>
<glyph name="diMadda" format="1">
  <unicode hex="0653"/>
  <note>
    uni0653
  </note>
  <outline>
    <contour>
      <point x="90" y="101" type="line"/>
      <point x="88" y="107" type="line"/>
      <point x="51" y="83" type="line"/>
      <point x="30" y="72"/>
      <point x="10" y="66"/>
      <point x="-9" y="66" type="curve" smooth="yes"/>
      <point x="-18" y="66"/>
      <point x="-31" y="72"/>
      <point x="-50" y="83" type="curve"/>
      <point x="-57" y="88"/>
      <point x="-63" y="91"/>
      <point x="-68" y="90" type="curve"/>
      <point x="-73" y="87"/>
      <point x="-79" y="77"/>
      <point x="-87" y="59" type="curve" smooth="yes"/>
      <point x="-92" y="48"/>
      <point x="-95" y="39"/>
      <point x="-98" y="30" type="curve"/>
      <point x="-106" y="2" type="line"/>
      <point x="-103" y="-6" type="line"/>
      <point x="-96" y="-7" type="line"/>
      <point x="-90" y="3" type="line"/>
      <point x="-85" y="12" type="line"/>
      <point x="-75" y="28"/>
      <point x="-69" y="37"/>
      <point x="-67" y="38" type="curve"/>
      <point x="-46" y="27" type="line"/>
      <point x="-32" y="21" type="line"/>
      <point x="-23" y="19" type="line"/>
      <point x="-6" y="18" type="line"/>
      <point x="35" y="18"/>
      <point x="72" y="57"/>
      <point x="89" y="89" type="curve"/>
      <point x="91" y="95" type="line"/>
    </contour>
    <contour>
      <point x="-15" y="0" type="move" name="_hamzaAbove"/>
    </contour>
  </outline>
</glyph>
<glyph name="diLonga.below" format="1">
  <unicode hex="0656"/>
  <note>
    uni0656
  </note>
  <outline>
    <contour>
      <point x="-6" y="-117"/>
      <point x="15" y="-183"/>
      <point x="15" y="-223" type="curve" smooth="yes"/>
      <point x="15" y="-233"/>
      <point x="14" y="-242"/>
      <point x="13" y="-250" type="curve"/>
      <point x="12" y="-256"/>
      <point x="12" y="-260"/>
      <point x="12" y="-262" type="curve" smooth="yes"/>
      <point x="12" y="-266"/>
      <point x="14" y="-268"/>
      <point x="17" y="-268" type="curve" smooth="yes"/>
      <point x="19" y="-268"/>
      <point x="22" y="-265"/>
      <point x="26" y="-259" type="curve"/>
      <point x="30" y="-254"/>
      <point x="34" y="-247"/>
      <point x="37" y="-238" type="curve" smooth="yes"/>
      <point x="44" y="-218"/>
      <point x="48" y="-197"/>
      <point x="48" y="-176" type="curve" smooth="yes"/>
      <point x="48" y="-128"/>
      <point x="29" y="-58"/>
      <point x="1" y="-10" type="curve"/>
      <point x="-31" y="-70" type="line"/>
    </contour>
    <contour>
      <point x="-1" y="-2" type="move" name="_markBelow"/>
    </contour>
    <contour>
      <point x="-1" y="-1" type="move" name="_markBelowDot"/>
    </contour>
  </outline>
</glyph>
<glyph name="dig5" format="1">
  <advance width="352"/>
  <unicode hex="0665"/>
  <note>
    uni0665
  </note>
  <outline>
    <contour>
      <point x="304" y="257" type="line"/>
      <point x="296" y="297" type="line"/>
      <point x="287" y="337" type="line"/>
      <point x="262" y="411"/>
      <point x="244" y="454"/>
      <point x="233" y="466" type="curve"/>
      <point x="217" y="490"/>
      <point x="202" y="498"/>
      <point x="187" y="498" type="curve" smooth="yes"/>
      <point x="174" y="498"/>
      <point x="162" y="492"/>
      <point x="149" y="479" type="curve" smooth="yes"/>
      <point x="130" y="459"/>
      <point x="117" y="428"/>
      <point x="107" y="407" type="curve" smooth="yes"/>
      <point x="97" y="386"/>
      <point x="80" y="348"/>
      <point x="71" y="311" type="curve"/>
      <point x="60" y="272"/>
      <point x="55" y="229"/>
      <point x="55" y="182" type="curve" smooth="yes"/>
      <point x="55" y="147"/>
      <point x="64" y="115"/>
      <point x="82" y="88" type="curve"/>
      <point x="111" y="58"/>
      <point x="140" y="43"/>
      <point x="169" y="43" type="curve" smooth="yes"/>
      <point x="222" y="43"/>
      <point x="268" y="72"/>
      <point x="292" y="115" type="curve"/>
      <point x="295" y="119" type="line"/>
      <point x="296" y="122" type="line"/>
      <point x="299" y="129" type="line"/>
      <point x="304" y="143" type="line"/>
      <point x="307" y="157" type="line"/>
      <point x="309" y="166" type="line"/>
      <point x="310" y="178" type="line"/>
      <point x="310" y="186" type="line"/>
      <point x="308" y="224" type="line"/>
    </contour>
    <contour>
      <point x="256" y="199"/>
      <point x="245" y="190"/>
      <point x="228" y="183" type="curve"/>
      <point x="211" y="174"/>
      <point x="190" y="170"/>
      <point x="171" y="170" type="curve"/>
      <point x="155" y="171" type="line"/>
      <point x="141" y="174" type="line"/>
      <point x="126" y="180" type="line" smooth="yes"/>
      <point x="121" y="182"/>
      <point x="117" y="184"/>
      <point x="114" y="187" type="curve"/>
      <point x="103" y="207" type="line"/>
      <point x="100" y="219" type="line"/>
      <point x="100" y="229" type="line"/>
      <point x="102" y="238" type="line" smooth="yes"/>
      <point x="109" y="267"/>
      <point x="122" y="296"/>
      <point x="139" y="325" type="curve" smooth="yes"/>
      <point x="156" y="354"/>
      <point x="167" y="366"/>
      <point x="172" y="363" type="curve"/>
      <point x="217" y="344"/>
      <point x="261" y="252"/>
      <point x="261" y="209" type="curve"/>
    </contour>
  </outline>
</glyph>
<glyph name="dig9" format="1">
  <advance width="384"/>
  <unicode hex="0669"/>
  <note>
    uni0669
  </note>
  <outline>
    <contour>
      <point x="343" y="135" type="line"/>
      <point x="336" y="150" type="line" smooth="yes"/>
      <point x="316" y="191"/>
      <point x="300" y="235"/>
      <point x="291" y="296" type="curve" smooth="yes"/>
      <point x="276" y="386" type="line"/>
      <point x="259" y="463" type="line"/>
      <point x="244" y="507"/>
      <point x="212" y="532"/>
      <point x="181" y="532" type="curve" smooth="yes"/>
      <point x="177" y="532"/>
      <point x="172" y="531"/>
      <point x="167" y="529" type="curve"/>
      <point x="156" y="526" type="line"/>
      <point x="145" y="520" type="line"/>
      <point x="135" y="511" type="line"/>
      <point x="106" y="482"/>
      <point x="84" y="446"/>
      <point x="68" y="402" type="curve"/>
      <point x="65" y="396"/>
      <point x="63" y="390"/>
      <point x="62" y="385" type="curve"/>
      <point x="60" y="379"/>
      <point x="58" y="374"/>
      <point x="57" y="370" type="curve" smooth="yes"/>
      <point x="49" y="340" type="line"/>
      <point x="46" y="323"/>
      <point x="44" y="304"/>
      <point x="44" y="281" type="curve" smooth="yes"/>
      <point x="44" y="240"/>
      <point x="95" y="196"/>
      <point x="143" y="196" type="curve"/>
      <point x="159" y="198" type="line"/>
      <point x="176" y="203"/>
      <point x="187" y="210"/>
      <point x="194" y="220" type="curve"/>
      <point x="207" y="241" type="line"/>
      <point x="214" y="252" type="line"/>
      <point x="227" y="270" type="line"/>
      <point x="227" y="244" type="line" smooth="yes"/>
      <point x="227" y="203"/>
      <point x="228" y="168"/>
      <point x="231" y="141" type="curve"/>
      <point x="245" y="82"/>
      <point x="253" y="49"/>
      <point x="255" y="44" type="curve"/>
      <point x="263" y="31"/>
      <point x="269" y="20"/>
      <point x="274" y="13" type="curve"/>
      <point x="280" y="6"/>
      <point x="286" y="1"/>
      <point x="293" y="-4" type="curve"/>
      <point x="299" y="-1"/>
      <point x="311" y="13"/>
      <point x="329" y="40" type="curve" smooth="yes"/>
      <point x="343" y="61" type="line"/>
      <point x="352" y="77" type="line"/>
      <point x="358" y="90"/>
      <point x="361" y="98"/>
      <point x="362" y="103" type="curve"/>
      <point x="349" y="125" type="line"/>
    </contour>
    <contour>
      <point x="206" y="332"/>
      <point x="203" y="329"/>
      <point x="198" y="328" type="curve" smooth="yes"/>
      <point x="187" y="326" type="line"/>
      <point x="180" y="327" type="line"/>
      <point x="125" y="348" type="line"/>
      <point x="109" y="359"/>
      <point x="101" y="367"/>
      <point x="101" y="372" type="curve"/>
      <point x="106" y="385"/>
      <point x="138" y="414"/>
      <point x="158" y="414" type="curve"/>
      <point x="164" y="413" type="line"/>
      <point x="180" y="402"/>
      <point x="192" y="390"/>
      <point x="199" y="378" type="curve"/>
      <point x="205" y="363"/>
      <point x="208" y="350"/>
      <point x="208" y="337" type="curve"/>
    </contour>
  </outline>
</glyph>
<glyph name="diLonga.above" format="1">
  <unicode hex="0670"/>
  <note>
    uni0670
  </note>
  <outline>
    <contour>
      <point x="-19" y="169"/>
      <point x="2" y="103"/>
      <point x="2" y="63" type="curve" smooth="yes"/>
      <point x="2" y="53"/>
      <point x="1" y="44"/>
      <point x="0" y="36" type="curve"/>
      <point x="-1" y="30"/>
      <point x="-1" y="26"/>
      <point x="-1" y="24" type="curve" smooth="yes"/>
      <point x="-1" y="20"/>
      <point x="1" y="18"/>
      <point x="4" y="18" type="curve" smooth="yes"/>
      <point x="6" y="18"/>
      <point x="9" y="21"/>
      <point x="13" y="27" type="curve"/>
      <point x="17" y="32"/>
      <point x="21" y="39"/>
      <point x="24" y="48" type="curve" smooth="yes"/>
      <point x="31" y="68"/>
      <point x="35" y="89"/>
      <point x="35" y="110" type="curve" smooth="yes"/>
      <point x="35" y="158"/>
      <point x="16" y="228"/>
      <point x="-12" y="276" type="curve"/>
      <point x="-44" y="216" type="line"/>
    </contour>
    <contour>
      <point x="1" y="1" type="move" name="_markBelow"/>
    </contour>
  </outline>
</glyph>
<glyph name="arAin.isol" format="1">
  <advance width="894"/>
  <outline>
    <contour>
      <point x="583" y="572" type="line"/>
      <point x="522" y="672"/>
      <point x="450" y="726"/>
      <point x="365" y="726" type="curve" smooth="yes"/>
      <point x="279" y="726"/>
      <point x="198" y="666"/>
      <point x="151" y="584" type="curve" smooth="yes"/>
      <point x="113" y="516"/>
      <point x="99" y="461"/>
      <point x="99" y="411" type="curve" smooth="yes"/>
      <point x="99" y="327"/>
      <point x="152" y="263"/>
      <point x="227" y="209" type="curve"/>
      <point x="128" y="94"/>
      <point x="85" y="-16"/>
      <point x="85" y="-123" type="curve" smooth="yes"/>
      <point x="85" y="-375"/>
      <point x="280" y="-489"/>
      <point x="527" y="-489" type="curve" smooth="yes"/>
      <point x="569" y="-489"/>
      <point x="610" y="-487"/>
      <point x="647" y="-475" type="curve"/>
      <point x="723" y="-433"/>
      <point x="802" y="-372"/>
      <point x="886" y="-298" type="curve"/>
      <point x="871" y="-275" type="line"/>
      <point x="800" y="-288"/>
      <point x="725" y="-294"/>
      <point x="648" y="-294" type="curve" smooth="yes"/>
      <point x="354" y="-294"/>
      <point x="184" y="-184"/>
      <point x="184" y="-58" type="curve" smooth="yes"/>
      <point x="184" y="45"/>
      <point x="356" y="170"/>
      <point x="671" y="277" type="curve"/>
      <point x="692" y="336"/>
      <point x="708" y="398"/>
      <point x="723" y="459" type="curve"/>
      <point x="713" y="467" type="line"/>
      <point x="526" y="397"/>
      <point x="417" y="340"/>
      <point x="390" y="340" type="curve" smooth="yes"/>
      <point x="366" y="340"/>
      <point x="329" y="358"/>
      <point x="289" y="388" type="curve"/>
      <point x="248" y="423"/>
      <point x="214" y="458"/>
      <point x="214" y="490" type="curve" smooth="yes"/>
      <point x="214" y="511"/>
      <point x="314" y="579"/>
      <point x="415" y="579" type="curve" smooth="yes"/>
      <point x="460" y="579"/>
      <point x="507" y="568"/>
      <point x="554" y="539" type="curve"/>
    </contour>
    <contour>
      <point x="291.226" y="871.015" type="move" name="dotAbove"/>
    </contour>
    <contour>
      <point x="243.732" y="1264.92" type="move" name="markAbove"/>
    </contour>
    <contour>
      <point x="276.48" y="-632.349" type="move" name="markBelow"/>
    </contour>
    <contour>
      <point x="441.098" y="-32.8171" type="move" name="dotBelow"/>
    </contour>
  </outline>
</glyph>
<glyph name="arAlefShort.fina" format="1">
  <advance width="418"/>
  <outline>
    <contour>
      <point x="418" y="200" type="line"/>
      <point x="404" y="200" type="line" smooth="yes"/>
      <point x="313" y="200"/>
      <point x="273" y="234"/>
      <point x="273" y="334" type="curve" smooth="yes"/>
      <point x="273" y="416"/>
      <point x="275" y="469"/>
      <point x="275" y="574" type="curve" smooth="yes"/>
      <point x="275" y="714"/>
      <point x="273" y="878"/>
      <point x="257" y="1022" type="curve"/>
      <point x="243" y="1029" type="line"/>
      <point x="204" y="995"/>
      <point x="165" y="958"/>
      <point x="128" y="918" type="curve"/>
      <point x="154" y="672"/>
      <point x="163" y="378"/>
      <point x="164" y="264" type="curve" smooth="yes"/>
      <point x="167" y="69"/>
      <point x="265" y="0"/>
      <point x="401" y="0" type="curve" smooth="yes"/>
      <point x="418" y="0" type="line"/>
    </contour>
    <contour>
      <point x="100.693" y="1111.52" type="move" name="hamzaAbove"/>
    </contour>
    <contour>
      <point x="211.627" y="1163.06" type="move" name="markAbove"/>
    </contour>
    <contour>
      <point x="145.067" y="-451.784" type="move" name="hamzaBelow"/>
    </contour>
    <contour>
      <point x="235.52" y="-181.789" type="move" name="markBelow"/>
    </contour>
    <contour>
      <point x="269.653" y="-188.616" type="move" name="dotBelow"/>
    </contour>
    <contour>
      <point x="191.147" y="1152.82" type="move" name="dotAbove"/>
    </contour>
  </outline>
</glyph>
<glyph name="arDal.fina" format="1">
  <advance width="444"/>
  <note>
    arDal.fina
  </note>
  <outline>
    <contour>
      <point x="364" y="180" type="line" smooth="yes"/>
      <point x="360" y="180"/>
      <point x="356" y="190"/>
      <point x="352" y="209" type="curve" smooth="yes"/>
      <point x="344" y="251" type="line"/>
      <point x="311" y="422" type="line" smooth="yes"/>
      <point x="298" y="486"/>
      <point x="289" y="520"/>
      <point x="284" y="524" type="curve"/>
      <point x="231" y="388" type="line"/>
      <point x="244" y="340" type="line"/>
      <point x="250" y="323" type="line"/>
      <point x="255" y="298" type="line"/>
      <point x="264" y="258" type="line"/>
      <point x="269" y="235" type="line"/>
      <point x="273" y="208" type="line"/>
      <point x="275" y="201" type="line"/>
      <point x="275" y="192" type="line"/>
      <point x="275" y="180" type="line"/>
      <point x="98" y="180" type="line" smooth="yes"/>
      <point x="92" y="180"/>
      <point x="88" y="183"/>
      <point x="85" y="189" type="curve" smooth="yes"/>
      <point x="82" y="195"/>
      <point x="81" y="212"/>
      <point x="81" y="241" type="curve" smooth="yes"/>
      <point x="81" y="258"/>
      <point x="82" y="271"/>
      <point x="84" y="280" type="curve"/>
      <point x="84" y="282"/>
      <point x="83" y="283"/>
      <point x="80" y="283" type="curve"/>
      <point x="74" y="282" type="line"/>
      <point x="51" y="255"/>
      <point x="37" y="134"/>
      <point x="37" y="66" type="curve" smooth="yes"/>
      <point x="37" y="48" type="line"/>
      <point x="39" y="24" type="line"/>
      <point x="44" y="4"/>
      <point x="53" y="0"/>
      <point x="62" y="0" type="curve" smooth="yes"/>
      <point x="248" y="0" type="line" smooth="yes"/>
      <point x="255" y="0"/>
      <point x="263" y="9"/>
      <point x="270" y="26" type="curve" smooth="yes"/>
      <point x="290" y="74" type="line"/>
      <point x="297" y="40" type="line"/>
      <point x="311" y="10" type="line"/>
      <point x="316" y="0" type="line"/>
      <point x="449" y="0" type="line"/>
      <point x="449" y="180" type="line"/>
    </contour>
    <contour>
      <point x="274.59146341463406" y="616.2134146341464" type="move" name="dotAbove"/>
    </contour>
    <contour>
      <point x="235.56097560975604" y="631.1829268292681" type="move" name="markAbove"/>
    </contour>
    <contour>
      <point x="154.39634146341473" y="-135.06097560975627" type="move" name="markBelow"/>
    </contour>
    <contour>
      <point x="159" y="-95" type="move" name="dotBelow"/>
    </contour>
  </outline>
</glyph>
<glyph name="arDecimal" format="1">
  <advance width="374"/>
  <outline>
    <contour>
      <point x="146" y="235" type="line"/>
      <point x="98" y="235"/>
      <point x="52" y="205"/>
      <point x="52" y="160" type="curve" smooth="yes"/>
      <point x="52" y="128"/>
      <point x="67" y="108"/>
      <point x="74" y="108" type="curve"/>
      <point x="146" y="93"/>
      <point x="183" y="50"/>
      <point x="183" y="-1" type="curve" smooth="yes"/>
      <point x="183" y="-63"/>
      <point x="141" y="-106"/>
      <point x="54" y="-143" type="curve"/>
      <point x="67" y="-194" type="line"/>
      <point x="189" y="-165"/>
      <point x="319" y="-87"/>
      <point x="319" y="50" type="curve" smooth="yes"/>
      <point x="319" y="162"/>
      <point x="221" y="235"/>
      <point x="147" y="235" type="curve"/>
    </contour>
  </outline>
</glyph>
<glyph name="arFeh.fina" format="1">
  <advance width="738"/>
  <note>
    arFeh.fina
  </note>
  <outline>
    <contour>
      <point x="647" y="199"/>
      <point x="654" y="214"/>
      <point x="661" y="230" type="curve" smooth="yes"/>
      <point x="668" y="245"/>
      <point x="673" y="261"/>
      <point x="673" y="281" type="curve" smooth="yes"/>
      <point x="673" y="301"/>
      <point x="671" y="333"/>
      <point x="663" y="358" type="curve"/>
      <point x="654" y="383"/>
      <point x="638" y="405"/>
      <point x="610" y="405" type="curve" smooth="yes"/>
      <point x="593" y="405"/>
      <point x="566" y="387"/>
      <point x="539" y="362" type="curve" smooth="yes"/>
      <point x="511" y="337"/>
      <point x="482" y="305"/>
      <point x="460" y="274" type="curve" smooth="yes"/>
      <point x="438" y="243"/>
      <point x="423" y="216"/>
      <point x="423" y="200" type="curve" smooth="yes"/>
      <point x="423" y="193"/>
      <point x="424" y="186"/>
      <point x="426" y="180" type="curve"/>
      <point x="158" y="180" type="line" smooth="yes"/>
      <point x="133" y="180"/>
      <point x="112" y="190"/>
      <point x="98" y="206" type="curve" smooth="yes"/>
      <point x="84" y="222"/>
      <point x="75" y="244"/>
      <point x="75" y="269" type="curve" smooth="yes"/>
      <point x="75" y="309"/>
      <point x="80" y="348"/>
      <point x="87" y="388" type="curve"/>
      <point x="73" y="387" type="line"/>
      <point x="61" y="372"/>
      <point x="51" y="350"/>
      <point x="43" y="325" type="curve" smooth="yes"/>
      <point x="35" y="300"/>
      <point x="28" y="272"/>
      <point x="24" y="246" type="curve" smooth="yes"/>
      <point x="20" y="220"/>
      <point x="17" y="194"/>
      <point x="17" y="177" type="curve" smooth="yes"/>
      <point x="17" y="136"/>
      <point x="20" y="92"/>
      <point x="36" y="58" type="curve" smooth="yes"/>
      <point x="52" y="24"/>
      <point x="82" y="0"/>
      <point x="135" y="0" type="curve" smooth="yes"/>
      <point x="743" y="0" type="line"/>
      <point x="743" y="180" type="line"/>
      <point x="642" y="180" type="line"/>
    </contour>
    <contour>
      <point x="582" y="185"/>
      <point x="571" y="181"/>
      <point x="559" y="180" type="curve"/>
      <point x="552" y="181"/>
      <point x="534" y="187"/>
      <point x="519" y="195" type="curve" smooth="yes"/>
      <point x="503" y="203"/>
      <point x="489" y="213"/>
      <point x="489" y="225" type="curve" smooth="yes"/>
      <point x="489" y="230"/>
      <point x="502" y="243"/>
      <point x="517" y="252" type="curve" smooth="yes"/>
      <point x="532" y="261"/>
      <point x="548" y="270"/>
      <point x="555" y="270" type="curve" smooth="yes"/>
      <point x="567" y="270"/>
      <point x="577" y="259"/>
      <point x="584" y="247" type="curve" smooth="yes"/>
      <point x="591" y="234"/>
      <point x="595" y="217"/>
      <point x="595" y="208" type="curve" smooth="yes"/>
      <point x="595" y="206"/>
      <point x="595" y="204"/>
      <point x="594" y="201" type="curve" smooth="yes"/>
      <point x="593" y="198"/>
      <point x="593" y="195"/>
      <point x="593" y="193" type="curve"/>
    </contour>
    <contour>
      <point x="549.2066666666665" y="527.0666666666666" type="move" name="dotAbove"/>
    </contour>
    <contour>
      <point x="241.71777777777788" y="467.5244444444445" type="move" name="markAbove"/>
    </contour>
    <contour>
      <point x="166.2155555555555" y="-92.51999999999998" type="move" name="markBelow"/>
    </contour>
    <contour>
      <point x="336" y="-87" type="move" name="dotBelow"/>
    </contour>
  </outline>
</glyph>
<glyph name="arKaf.medi" format="1">
  <advance width="353"/>
  <note>
    arKaf.medi
  </note>
  <outline>
    <contour>
      <point x="306" y="180" type="line"/>
      <point x="89" y="423" type="line"/>
      <point x="303" y="501" type="line"/>
      <point x="313" y="530"/>
      <point x="319" y="550"/>
      <point x="321" y="562" type="curve"/>
      <point x="330" y="599"/>
      <point x="335" y="622"/>
      <point x="334" y="630" type="curve"/>
      <point x="48" y="539" type="line"/>
      <point x="38" y="499" type="line"/>
      <point x="17" y="419" type="line"/>
      <point x="12" y="403" type="line"/>
      <point x="8" y="388" type="line"/>
      <point x="1" y="355" type="line"/>
      <point x="44" y="307" type="line"/>
      <point x="119" y="224" type="line"/>
      <point x="159" y="180" type="line"/>
      <point x="-6" y="180" type="line"/>
      <point x="-6" y="0" type="line"/>
      <point x="165" y="0" type="line"/>
      <point x="168" y="2"/>
      <point x="178" y="19"/>
      <point x="193" y="51" type="curve" smooth="yes"/>
      <point x="215" y="98" type="line"/>
      <point x="255" y="32" type="line"/>
      <point x="269" y="11"/>
      <point x="278" y="0"/>
      <point x="283" y="0" type="curve" smooth="yes"/>
      <point x="356" y="0" type="line"/>
      <point x="356" y="180" type="line"/>
    </contour>
    <contour>
      <point x="162.57012195121956" y="599.0182926829268" type="move" name="gafAbove"/>
    </contour>
    <contour>
      <point x="137" y="711" type="move" name="markAbove"/>
    </contour>
    <contour>
      <point x="144.44817073170725" y="-145.18902439024396" type="move" name="markBelow"/>
    </contour>
    <contour>
      <point x="72" y="610" type="move" name="dotAbove"/>
    </contour>
    <contour>
      <point x="146" y="-116" type="move" name="dotBelow"/>
    </contour>
  </outline>
</glyph>
<glyph name="arMeem.init" format="1">
  <advance width="271"/>
  <note>
    arMeem.init
  </note>
  <outline>
    <contour>
      <point x="264" y="198" type="line"/>
      <point x="261" y="215" type="line"/>
      <point x="248" y="274" type="line"/>
      <point x="224" y="369" type="line"/>
      <point x="216" y="384" type="line"/>
      <point x="208" y="388" type="line"/>
      <point x="205" y="390" type="line"/>
      <point x="184" y="390"/>
      <point x="161" y="381"/>
      <point x="136" y="362" type="curve" smooth="yes"/>
      <point x="84" y="324"/>
      <point x="60" y="275"/>
      <point x="44" y="235" type="curve" smooth="yes"/>
      <point x="23" y="180" type="line"/>
      <point x="-3" y="180" type="line"/>
      <point x="-3" y="0" type="line"/>
      <point x="6" y="0" type="line"/>
      <point x="16" y="1" type="line"/>
      <point x="19" y="2"/>
      <point x="21" y="4"/>
      <point x="22" y="7" type="curve"/>
      <point x="39" y="43" type="line"/>
      <point x="58" y="100" type="line"/>
      <point x="102" y="70" type="line"/>
      <point x="117" y="60" type="line"/>
      <point x="143" y="44" type="line"/>
      <point x="174" y="25" type="line"/>
      <point x="185" y="19" type="line"/>
      <point x="203" y="12" type="line"/>
      <point x="215" y="32"/>
      <point x="227" y="58"/>
      <point x="239" y="90" type="curve" smooth="yes"/>
      <point x="247" y="110" type="line"/>
      <point x="252" y="128" type="line"/>
      <point x="257" y="139"/>
      <point x="260" y="150"/>
      <point x="262" y="161" type="curve"/>
      <point x="265" y="184" type="line"/>
    </contour>
    <contour>
      <point x="114" y="249" type="line"/>
      <point x="121" y="261"/>
      <point x="134" y="270"/>
      <point x="146" y="270" type="curve" smooth="yes"/>
      <point x="150" y="270"/>
      <point x="153" y="269"/>
      <point x="156" y="267" type="curve"/>
      <point x="161" y="263"/>
      <point x="164" y="255"/>
      <point x="167" y="244" type="curve" smooth="yes"/>
      <point x="170" y="234" type="line"/>
      <point x="171" y="233"/>
      <point x="171" y="230"/>
      <point x="171" y="226" type="curve"/>
      <point x="172" y="217" type="line"/>
      <point x="172" y="210" type="line"/>
      <point x="148" y="226" type="line"/>
    </contour>
    <contour>
      <point x="131" y="513" type="move" name="markAbove"/>
    </contour>
    <contour>
      <point x="140.9908536585367" y="-109.71646341463429" type="move" name="markBelow"/>
    </contour>
    <contour>
      <point x="131" y="492" type="move" name="dotAbove"/>
    </contour>
    <contour>
      <point x="140" y="-129" type="move" name="dotBelow"/>
    </contour>
  </outline>
</glyph>
<glyph name="arOrnateRight" format="1">
  <advance width="994"/>
  <outline>
    <contour>
      <point x="641" y="294" type="curve"/>
      <point x="656" y="278"/>
      <point x="678" y="265"/>
      <point x="706" y="265" type="curve" smooth="yes"/>
      <point x="744" y="265"/>
      <point x="776" y="283"/>
      <point x="804" y="306" type="curve" smooth="yes"/>
      <point x="845" y="339"/>
      <point x="861" y="384"/>
      <point x="914" y="410" type="curve"/>
      <point x="906" y="431" type="line"/>
      <point x="896" y="426"/>
      <point x="884" y="426"/>
      <point x="874" y="426" type="curve" smooth="yes"/>
      <point x="843" y="426"/>
      <point x="828" y="462"/>
      <point x="798" y="490" type="curve" smooth="yes"/>
      <point x="773" y="515"/>
      <point x="744" y="532"/>
      <point x="706" y="532" type="curve" smooth="yes"/>
      <point x="678" y="532"/>
      <point x="656" y="524"/>
      <point x="641" y="508" type="curve"/>
      <point x="641" y="571"/>
      <point x="609" y="641"/>
      <point x="550" y="697" type="curve"/>
      <point x="534" y="689" type="line"/>
      <point x="540" y="671"/>
      <point x="543" y="654"/>
      <point x="543" y="636" type="curve" smooth="yes"/>
      <point x="543" y="589"/>
      <point x="507" y="558"/>
      <point x="462" y="545" type="curve" smooth="yes"/>
      <point x="417" y="532"/>
      <point x="397" y="511"/>
      <point x="397" y="477" type="curve" smooth="yes"/>
      <point x="397" y="466"/>
      <point x="400" y="455"/>
      <point x="407" y="446" type="curve"/>
      <point x="399" y="443" type="line"/>
      <point x="356" y="481"/>
      <point x="335" y="527"/>
      <point x="335" y="581" type="curve" smooth="yes"/>
      <point x="335" y="669"/>
      <point x="397" y="735"/>
      <point x="494" y="735" type="curve" smooth="yes"/>
      <point x="579" y="735"/>
      <point x="609" y="677"/>
      <point x="653" y="677" type="curve" smooth="yes"/>
      <point x="666" y="677"/>
      <point x="680" y="681"/>
      <point x="688" y="688" type="curve"/>
      <point x="679" y="705" type="line"/>
      <point x="675" y="703"/>
      <point x="671" y="702"/>
      <point x="667" y="702" type="curve" smooth="yes"/>
      <point x="633" y="702"/>
      <point x="618" y="741"/>
      <point x="590" y="779" type="curve" smooth="yes"/>
      <point x="559" y="822"/>
      <point x="522" y="856"/>
      <point x="474" y="856" type="curve" smooth="yes"/>
      <point x="425" y="856"/>
      <point x="392" y="827"/>
      <point x="375" y="785" type="curve"/>
      <point x="371" y="788" type="line"/>
      <point x="388" y="828"/>
      <point x="391" y="863"/>
      <point x="391" y="883" type="curve" smooth="yes"/>
      <point x="391" y="939"/>
      <point x="350" y="1005"/>
      <point x="287" y="1068" type="curve" smooth="yes"/>
      <point x="249" y="1106"/>
      <point x="208" y="1140"/>
      <point x="172" y="1175" type="curve" smooth="yes"/>
      <point x="150" y="1196"/>
      <point x="133" y="1215"/>
      <point x="124" y="1234" type="curve"/>
      <point x="149" y="1240"/>
      <point x="160" y="1255"/>
      <point x="160" y="1274" type="curve" smooth="yes"/>
      <point x="160" y="1295"/>
      <point x="144" y="1311"/>
      <point x="120" y="1311" type="curve" smooth="yes"/>
      <point x="96" y="1311"/>
      <point x="80" y="1293"/>
      <point x="80" y="1272" type="curve" smooth="yes"/>
      <point x="80" y="1247"/>
      <point x="94" y="1224"/>
      <point x="115" y="1193" type="curve" smooth="yes"/>
      <point x="141" y="1157"/>
      <point x="168" y="1119"/>
      <point x="188" y="1081" type="curve" smooth="yes"/>
      <point x="253" y="960"/>
      <point x="281" y="832"/>
      <point x="281" y="670" type="curve" smooth="yes"/>
      <point x="281" y="477"/>
      <point x="346" y="421"/>
      <point x="425" y="402" type="curve"/>
      <point x="425" y="400" type="line"/>
      <point x="346" y="381"/>
      <point x="281" y="325"/>
      <point x="281" y="132" type="curve" smooth="yes"/>
      <point x="281" y="-30"/>
      <point x="253" y="-158"/>
      <point x="188" y="-279" type="curve" smooth="yes"/>
      <point x="168" y="-317"/>
      <point x="141" y="-355"/>
      <point x="115" y="-391" type="curve" smooth="yes"/>
      <point x="94" y="-422"/>
      <point x="80" y="-445"/>
      <point x="80" y="-470" type="curve" smooth="yes"/>
      <point x="80" y="-491"/>
      <point x="96" y="-509"/>
      <point x="120" y="-509" type="curve" smooth="yes"/>
      <point x="144" y="-509"/>
      <point x="160" y="-493"/>
      <point x="160" y="-472" type="curve" smooth="yes"/>
      <point x="160" y="-453"/>
      <point x="149" y="-438"/>
      <point x="124" y="-432" type="curve"/>
      <point x="133" y="-413"/>
      <point x="150" y="-394"/>
      <point x="172" y="-373" type="curve" smooth="yes"/>
      <point x="208" y="-338"/>
      <point x="249" y="-304"/>
      <point x="287" y="-266" type="curve" smooth="yes"/>
      <point x="350" y="-203"/>
      <point x="391" y="-137"/>
      <point x="391" y="-81" type="curve" smooth="yes"/>
      <point x="391" y="-61"/>
      <point x="388" y="-26"/>
      <point x="371" y="14" type="curve"/>
      <point x="375" y="17" type="line"/>
      <point x="392" y="-25"/>
      <point x="425" y="-54"/>
      <point x="474" y="-54" type="curve" smooth="yes"/>
      <point x="522" y="-54"/>
      <point x="559" y="-20"/>
      <point x="590" y="23" type="curve" smooth="yes"/>
      <point x="618" y="61"/>
      <point x="633" y="100"/>
      <point x="667" y="100" type="curve" smooth="yes"/>
      <point x="671" y="100"/>
      <point x="675" y="99"/>
      <point x="679" y="97" type="curve"/>
      <point x="688" y="114" type="line"/>
      <point x="680" y="121"/>
      <point x="666" y="125"/>
      <point x="653" y="125" type="curve" smooth="yes"/>
      <point x="609" y="125"/>
      <point x="579" y="67"/>
      <point x="494" y="67" type="curve" smooth="yes"/>
      <point x="397" y="67"/>
      <point x="335" y="133"/>
      <point x="335" y="221" type="curve" smooth="yes"/>
      <point x="335" y="275"/>
      <point x="356" y="321"/>
      <point x="399" y="359" type="curve"/>
      <point x="407" y="356" type="line"/>
      <point x="400" y="347"/>
      <point x="397" y="336"/>
      <point x="397" y="325" type="curve" smooth="yes"/>
      <point x="397" y="291"/>
      <point x="417" y="270"/>
      <point x="462" y="257" type="curve" smooth="yes"/>
      <point x="507" y="244"/>
      <point x="543" y="213"/>
      <point x="543" y="166" type="curve" smooth="yes"/>
      <point x="543" y="148"/>
      <point x="540" y="131"/>
      <point x="534" y="113" type="curve"/>
      <point x="550" y="105" type="line"/>
      <point x="609" y="161"/>
      <point x="641" y="231"/>
    </contour>
    <contour>
      <point x="554" y="403" type="line"/>
      <point x="582" y="418"/>
      <point x="605" y="439"/>
      <point x="618" y="465" type="curve"/>
      <point x="659" y="457"/>
      <point x="691" y="432"/>
      <point x="691" y="401" type="curve" smooth="yes"/>
      <point x="691" y="370"/>
      <point x="659" y="345"/>
      <point x="618" y="337" type="curve"/>
      <point x="605" y="363"/>
      <point x="582" y="384"/>
      <point x="554" y="399" type="curve"/>
    </contour>
  </outline>
</glyph>
<glyph name="arQaf.fina" format="1">
  <advance width="465"/>
  <note>
    arQaf.fina
  </note>
  <outline>
    <contour>
      <point x="420" y="187"/>
      <point x="418" y="196"/>
      <point x="417" y="209" type="curve"/>
      <point x="415" y="222"/>
      <point x="412" y="235"/>
      <point x="409" y="250" type="curve"/>
      <point x="402" y="279"/>
      <point x="393" y="313"/>
      <point x="381" y="338" type="curve" smooth="yes"/>
      <point x="368" y="363"/>
      <point x="351" y="382"/>
      <point x="331" y="382" type="curve" smooth="yes"/>
      <point x="306" y="382"/>
      <point x="282" y="358"/>
      <point x="263" y="323" type="curve" smooth="yes"/>
      <point x="243" y="288"/>
      <point x="227" y="243"/>
      <point x="216" y="201" type="curve" smooth="yes"/>
      <point x="204" y="159"/>
      <point x="198" y="121"/>
      <point x="198" y="98" type="curve" smooth="yes"/>
      <point x="198" y="53"/>
      <point x="221" y="30"/>
      <point x="252" y="18" type="curve" smooth="yes"/>
      <point x="283" y="5"/>
      <point x="322" y="3"/>
      <point x="355" y="3" type="curve"/>
      <point x="356" y="-4" type="line"/>
      <point x="356" y="-20"/>
      <point x="344" y="-30"/>
      <point x="328" y="-37" type="curve"/>
      <point x="312" y="-45"/>
      <point x="291" y="-50"/>
      <point x="271" y="-53" type="curve"/>
      <point x="251" y="-57"/>
      <point x="234" y="-58"/>
      <point x="223" y="-58" type="curve" smooth="yes"/>
      <point x="179" y="-58"/>
      <point x="144" y="-50"/>
      <point x="120" y="-30" type="curve" smooth="yes"/>
      <point x="96" y="-11"/>
      <point x="83" y="20"/>
      <point x="83" y="68" type="curve" smooth="yes"/>
      <point x="83" y="125"/>
      <point x="93" y="183"/>
      <point x="116" y="235" type="curve"/>
      <point x="105" y="231"/>
      <point x="90" y="222"/>
      <point x="83" y="213" type="curve"/>
      <point x="78" y="204"/>
      <point x="69" y="186"/>
      <point x="61" y="166" type="curve" smooth="yes"/>
      <point x="53" y="145"/>
      <point x="45" y="121"/>
      <point x="38" y="100" type="curve" smooth="yes"/>
      <point x="31" y="79"/>
      <point x="26" y="61"/>
      <point x="26" y="50" type="curve"/>
      <point x="25" y="44"/>
      <point x="25" y="39"/>
      <point x="24" y="34" type="curve" smooth="yes"/>
      <point x="23" y="29"/>
      <point x="22" y="24"/>
      <point x="21" y="19" type="curve"/>
      <point x="20" y="9"/>
      <point x="18" y="-5"/>
      <point x="18" y="-26" type="curve" smooth="yes"/>
      <point x="19" y="-71"/>
      <point x="33" y="-113"/>
      <point x="58" y="-144" type="curve" smooth="yes"/>
      <point x="83" y="-175"/>
      <point x="120" y="-195"/>
      <point x="168" y="-195" type="curve" smooth="yes"/>
      <point x="232" y="-195"/>
      <point x="286" y="-178"/>
      <point x="326" y="-145" type="curve" smooth="yes"/>
      <point x="366" y="-113"/>
      <point x="393" y="-64"/>
      <point x="405" y="0" type="curve"/>
      <point x="468" y="0" type="line"/>
      <point x="468" y="180" type="line"/>
      <point x="421" y="180" type="line"/>
    </contour>
    <contour>
      <point x="320" y="178"/>
      <point x="307" y="183"/>
      <point x="295" y="188" type="curve" smooth="yes"/>
      <point x="283" y="193"/>
      <point x="273" y="203"/>
      <point x="273" y="212" type="curve" smooth="yes"/>
      <point x="273" y="217"/>
      <point x="278" y="224"/>
      <point x="284" y="228" type="curve" smooth="yes"/>
      <point x="290" y="232"/>
      <point x="297" y="237"/>
      <point x="302" y="238" type="curve"/>
      <point x="311" y="231"/>
      <point x="321" y="224"/>
      <point x="329" y="214" type="curve"/>
      <point x="336" y="204"/>
      <point x="342" y="192"/>
      <point x="342" y="180" type="curve"/>
      <point x="339" y="180"/>
      <point x="337" y="180"/>
      <point x="335" y="179" type="curve" smooth="yes"/>
      <point x="333" y="178"/>
      <point x="331" y="178"/>
      <point x="328" y="178" type="curve" smooth="yes"/>
    </contour>
    <contour>
      <point x="313.02134146341473" y="496.5091463414635" type="move" name="dotAbove"/>
    </contour>
    <contour>
      <point x="142.61737804878044" y="392.95731707317077" type="move" name="markAbove"/>
    </contour>
    <contour>
      <point x="107.03353658536571" y="-263.3658536585366" type="move" name="markBelow"/>
    </contour>
    <contour>
      <point x="159.80945121951208" y="-264.8719512195122" type="move" name="dotBelow"/>
    </contour>
  </outline>
</glyph>
<glyph name="arSeen.fina" format="1">
  <advance width="719"/>
  <note>
    arSeen.fina
  </note>
  <outline>
    <contour>
      <point x="655" y="180" type="line"/>
      <point x="654" y="242" type="line"/>
      <point x="651" y="282" type="line" smooth="yes"/>
      <point x="649" y="301"/>
      <point x="646" y="313"/>
      <point x="643" y="317" type="curve"/>
      <point x="629" y="306"/>
      <point x="621" y="297"/>
      <point x="619" y="292" type="curve"/>
      <point x="616" y="288"/>
      <point x="611" y="281"/>
      <point x="605" y="270" type="curve" smooth="yes"/>
      <point x="587" y="238" type="line"/>
      <point x="587" y="226"/>
      <point x="583" y="192"/>
      <point x="579" y="180" type="curve"/>
      <point x="524" y="180" type="line"/>
      <point x="532" y="245" type="line"/>
      <point x="535" y="295" type="line"/>
      <point x="535" y="312"/>
      <point x="533" y="323"/>
      <point x="529" y="328" type="curve"/>
      <point x="518" y="319"/>
      <point x="506" y="304"/>
      <point x="493" y="283" type="curve"/>
      <point x="463" y="228" type="line"/>
      <point x="458" y="180" type="line"/>
      <point x="387" y="180" type="line"/>
      <point x="340" y="276" type="line"/>
      <point x="323" y="300" type="line"/>
      <point x="317" y="307" type="line"/>
      <point x="314" y="304"/>
      <point x="304" y="283"/>
      <point x="286" y="244" type="curve" smooth="yes"/>
      <point x="261" y="190" type="line"/>
      <point x="286" y="147"/>
      <point x="321" y="48"/>
      <point x="321" y="13" type="curve"/>
      <point x="319" y="1" type="line"/>
      <point x="298" y="-15"/>
      <point x="278" y="-26"/>
      <point x="257" y="-33" type="curve"/>
      <point x="243" y="-37" type="line"/>
      <point x="234" y="-39" type="line"/>
      <point x="225" y="-42" type="line"/>
      <point x="214" y="-42" type="line"/>
      <point x="207" y="-43" type="line"/>
      <point x="196" y="-43" type="line"/>
      <point x="177" y="-44" type="line"/>
      <point x="172" y="-44" type="line"/>
      <point x="147" y="-42" type="line"/>
      <point x="122" y="-34"/>
      <point x="106" y="-23"/>
      <point x="98" y="-10" type="curve"/>
      <point x="93" y="-1"/>
      <point x="90" y="5"/>
      <point x="89" y="10" type="curve"/>
      <point x="87" y="23" type="line"/>
      <point x="87" y="38" type="line"/>
      <point x="87" y="47" type="line"/>
      <point x="89" y="68" type="line"/>
      <point x="95" y="98"/>
      <point x="100" y="121"/>
      <point x="105" y="137" type="curve"/>
      <point x="117" y="163" type="line"/>
      <point x="136" y="202" type="line"/>
      <point x="135" y="204"/>
      <point x="133" y="205"/>
      <point x="131" y="205" type="curve"/>
      <point x="126" y="204" type="line"/>
      <point x="77" y="169"/>
      <point x="7" y="31"/>
      <point x="7" y="-69" type="curve" smooth="yes"/>
      <point x="7" y="-138"/>
      <point x="46" y="-182"/>
      <point x="123" y="-198" type="curve" smooth="yes"/>
      <point x="133" y="-200"/>
      <point x="143" y="-201"/>
      <point x="154" y="-201" type="curve" smooth="yes"/>
      <point x="183" y="-201"/>
      <point x="215" y="-194"/>
      <point x="249" y="-181" type="curve" smooth="yes"/>
      <point x="316" y="-154"/>
      <point x="334" y="-128"/>
      <point x="354" y="-76" type="curve" smooth="yes"/>
      <point x="358" y="-66"/>
      <point x="361" y="-54"/>
      <point x="364" y="-40" type="curve"/>
      <point x="369" y="-23" type="line"/>
      <point x="372" y="0" type="line"/>
      <point x="448" y="0" type="line" smooth="yes"/>
      <point x="453" y="0"/>
      <point x="456" y="2"/>
      <point x="459" y="6" type="curve" smooth="yes"/>
      <point x="470" y="21" type="line"/>
      <point x="486" y="3" type="line"/>
      <point x="489" y="1"/>
      <point x="492" y="0"/>
      <point x="495" y="0" type="curve" smooth="yes"/>
      <point x="597" y="0" type="line" smooth="yes"/>
      <point x="602" y="0"/>
      <point x="606" y="3"/>
      <point x="610" y="10" type="curve"/>
      <point x="624" y="32" type="line"/>
      <point x="629" y="14" type="line"/>
      <point x="632" y="5"/>
      <point x="635" y="0"/>
      <point x="637" y="0" type="curve" smooth="yes"/>
      <point x="722" y="0" type="line"/>
      <point x="722" y="180" type="line"/>
    </contour>
    <contour>
      <point x="478.5091463414633" y="455.5594512195123" type="move" name="dotAbove"/>
    </contour>
    <contour>
      <point x="151.97713414634154" y="367.57317073170725" type="move" name="markAbove"/>
    </contour>
    <contour>
      <point x="103.05487804878044" y="-278.07621951219517" type="move" name="markBelow"/>
    </contour>
    <contour>
      <point x="519" y="-111" type="move" name="dotBelow"/>
    </contour>
  </outline>
</glyph>
<glyph name="arTah.fina" format="1">
  <advance width="568"/>
  <note>
    arTah.fina
  </note>
  <outline>
    <contour>
      <point x="532" y="193" type="line"/>
      <point x="536" y="203" type="line"/>
      <point x="539" y="214"/>
      <point x="541" y="223"/>
      <point x="541" y="229" type="curve" smooth="yes"/>
      <point x="541" y="270"/>
      <point x="455" y="375"/>
      <point x="419" y="375" type="curve"/>
      <point x="414" y="374" type="line"/>
      <point x="363" y="354" type="line" smooth="yes"/>
      <point x="346" y="347"/>
      <point x="331" y="340"/>
      <point x="320" y="333" type="curve"/>
      <point x="294" y="318"/>
      <point x="268" y="301"/>
      <point x="241" y="282" type="curve"/>
      <point x="172" y="227" type="line"/>
      <point x="179" y="260" type="line"/>
      <point x="182" y="287" type="line"/>
      <point x="184" y="296" type="line"/>
      <point x="184" y="396" type="line"/>
      <point x="198" y="397" type="line"/>
      <point x="203" y="406" type="line"/>
      <point x="224" y="454" type="line"/>
      <point x="242" y="503" type="line"/>
      <point x="210" y="517" type="line"/>
      <point x="191" y="529" type="line"/>
      <point x="160" y="554"/>
      <point x="145" y="580"/>
      <point x="145" y="607" type="curve"/>
      <point x="135" y="609" type="line"/>
      <point x="120" y="592"/>
      <point x="108" y="577"/>
      <point x="101" y="564" type="curve" smooth="yes"/>
      <point x="84" y="531" type="line" smooth="yes"/>
      <point x="79" y="521"/>
      <point x="76" y="512"/>
      <point x="75" y="505" type="curve"/>
      <point x="84" y="489" type="line"/>
      <point x="93" y="477" type="line"/>
      <point x="98" y="473" type="line"/>
      <point x="107" y="434"/>
      <point x="126" y="275"/>
      <point x="126" y="190" type="curve"/>
      <point x="118" y="181" type="line"/>
      <point x="106" y="175" type="line"/>
      <point x="105" y="174"/>
      <point x="103" y="173"/>
      <point x="100" y="173" type="curve" smooth="yes"/>
      <point x="88" y="173" type="line"/>
      <point x="71" y="175" type="line"/>
      <point x="55" y="179" type="line"/>
      <point x="43" y="188"/>
      <point x="36" y="194"/>
      <point x="35" y="198" type="curve"/>
      <point x="29" y="200" type="line"/>
      <point x="24" y="199" type="line"/>
      <point x="20" y="182"/>
      <point x="18" y="165"/>
      <point x="18" y="148" type="curve" smooth="yes"/>
      <point x="18" y="113"/>
      <point x="25" y="82"/>
      <point x="40" y="55" type="curve" smooth="yes"/>
      <point x="73" y="-4"/>
      <point x="106" y="-3"/>
      <point x="159" y="0" type="curve"/>
      <point x="573" y="0" type="line"/>
      <point x="573" y="180" type="line"/>
      <point x="524" y="180" type="line"/>
    </contour>
    <contour>
      <point x="397" y="179"/>
      <point x="388" y="178"/>
      <point x="373" y="178" type="curve" smooth="yes"/>
      <point x="344" y="178" type="line"/>
      <point x="312" y="180" type="line"/>
      <point x="215" y="180" type="line"/>
      <point x="255" y="216" type="line"/>
      <point x="264" y="222" type="line"/>
      <point x="287" y="239"/>
      <point x="309" y="248"/>
      <point x="331" y="248" type="curve"/>
      <point x="347" y="243"/>
      <point x="359" y="237"/>
      <point x="368" y="229" type="curve"/>
      <point x="373" y="224"/>
      <point x="376" y="221"/>
      <point x="377" y="219" type="curve"/>
      <point x="385" y="209" type="line"/>
      <point x="392" y="197"/>
      <point x="396" y="188"/>
      <point x="399" y="182" type="curve"/>
    </contour>
    <contour>
      <point x="387" y="461" type="move" name="dotAbove"/>
    </contour>
    <contour>
      <point x="383" y="532" type="move" name="markAbove"/>
    </contour>
    <contour>
      <point x="162.8689024390244" y="-90.49695121951231" type="move" name="markBelow"/>
    </contour>
    <contour>
      <point x="166" y="-52" type="move" name="dotBelow"/>
    </contour>
  </outline>
</glyph>
<glyph name="arTah.init" format="1">
  <advance width="483"/>
  <note>
    arTah.init
  </note>
  <outline>
    <contour>
      <point x="465" y="244"/>
      <point x="461" y="256"/>
      <point x="454" y="273" type="curve"/>
      <point x="447" y="287" type="line"/>
      <point x="441" y="296" type="line"/>
      <point x="432" y="309" type="line"/>
      <point x="423" y="321" type="line"/>
      <point x="391" y="357"/>
      <point x="368" y="375"/>
      <point x="354" y="375" type="curve"/>
      <point x="347" y="374" type="line"/>
      <point x="297" y="354" type="line"/>
      <point x="273" y="344" type="line"/>
      <point x="252" y="333" type="line"/>
      <point x="215" y="310" type="line"/>
      <point x="175" y="282" type="line"/>
      <point x="105" y="227" type="line"/>
      <point x="111" y="260" type="line"/>
      <point x="114" y="271" type="line"/>
      <point x="115" y="287" type="line"/>
      <point x="117" y="296" type="line"/>
      <point x="117" y="310" type="line"/>
      <point x="118" y="332" type="line"/>
      <point x="118" y="337" type="line"/>
      <point x="117" y="366" type="line"/>
      <point x="117" y="396" type="line"/>
      <point x="132" y="397" type="line"/>
      <point x="137" y="406"/>
      <point x="146" y="425"/>
      <point x="157" y="454" type="curve" smooth="yes"/>
      <point x="175" y="503" type="line"/>
      <point x="122" y="527"/>
      <point x="79" y="554"/>
      <point x="79" y="607" type="curve"/>
      <point x="68" y="609" type="line"/>
      <point x="50" y="587" type="line" smooth="yes"/>
      <point x="43" y="578"/>
      <point x="38" y="571"/>
      <point x="35" y="564" type="curve"/>
      <point x="24" y="546" type="line"/>
      <point x="18" y="531" type="line"/>
      <point x="13" y="522"/>
      <point x="10" y="513"/>
      <point x="8" y="505" type="curve"/>
      <point x="18" y="489" type="line"/>
      <point x="25" y="479" type="line"/>
      <point x="31" y="473" type="line"/>
      <point x="36" y="451" type="line"/>
      <point x="37" y="445"/>
      <point x="38" y="440"/>
      <point x="38" y="435" type="curve"/>
      <point x="40" y="425" type="line"/>
      <point x="49" y="346" type="line"/>
      <point x="57" y="282" type="line"/>
      <point x="58" y="269" type="line"/>
      <point x="58" y="259" type="line"/>
      <point x="59" y="227" type="line"/>
      <point x="60" y="190" type="line"/>
      <point x="45" y="180" type="line"/>
      <point x="-4" y="180" type="line"/>
      <point x="-4" y="0" type="line"/>
      <point x="406" y="0" type="line"/>
      <point x="456" y="182" type="line"/>
      <point x="461" y="197" type="line"/>
      <point x="463" y="211" type="line"/>
      <point x="464" y="215"/>
      <point x="465" y="219"/>
      <point x="465" y="224" type="curve" smooth="yes"/>
      <point x="465" y="235" type="line" smooth="yes"/>
    </contour>
    <contour>
      <point x="330" y="179"/>
      <point x="322" y="178"/>
      <point x="307" y="178" type="curve" smooth="yes"/>
      <point x="277" y="178" type="line"/>
      <point x="245" y="178" type="line"/>
      <point x="207" y="179" type="line"/>
      <point x="148" y="180" type="line"/>
      <point x="178" y="207" type="line"/>
      <point x="189" y="216" type="line"/>
      <point x="197" y="222" type="line" smooth="yes"/>
      <point x="221" y="239"/>
      <point x="244" y="248"/>
      <point x="265" y="248" type="curve"/>
      <point x="284" y="241"/>
      <point x="294" y="236"/>
      <point x="301" y="229" type="curve"/>
      <point x="313" y="218"/>
      <point x="324" y="203"/>
      <point x="333" y="182" type="curve"/>
    </contour>
    <contour>
      <point x="306.9908536585365" y="506.0716463414633" type="move" name="dotAbove"/>
    </contour>
    <contour>
      <point x="248.85213414634154" y="617.6189024390244" type="move" name="markAbove"/>
    </contour>
    <contour>
      <point x="187.31707317073187" y="-117.20731707317054" type="move" name="markBelow"/>
    </contour>
    <contour>
      <point x="185" y="-82" type="move" name="dotBelow"/>
    </contour>
  </outline>
</glyph>
<glyph name="arTah.isol" format="1">
  <advance width="552"/>
  <note>
    arTah.isol
  </note>
  <outline>
    <contour>
      <point x="532" y="240"/>
      <point x="531" y="246"/>
      <point x="529" y="252" type="curve"/>
      <point x="521" y="273" type="line"/>
      <point x="515" y="284" type="line"/>
      <point x="507" y="296" type="line"/>
      <point x="490" y="321" type="line"/>
      <point x="458" y="357"/>
      <point x="435" y="375"/>
      <point x="420" y="375" type="curve"/>
      <point x="414" y="374" type="line"/>
      <point x="363" y="354" type="line" smooth="yes"/>
      <point x="346" y="347"/>
      <point x="331" y="340"/>
      <point x="320" y="333" type="curve"/>
      <point x="294" y="318"/>
      <point x="268" y="301"/>
      <point x="241" y="282" type="curve"/>
      <point x="172" y="227" type="line"/>
      <point x="178" y="260" type="line"/>
      <point x="180" y="271" type="line"/>
      <point x="182" y="287" type="line"/>
      <point x="184" y="296" type="line"/>
      <point x="184" y="310" type="line"/>
      <point x="184" y="332" type="line"/>
      <point x="184" y="337" type="line"/>
      <point x="184" y="366" type="line"/>
      <point x="184" y="396" type="line"/>
      <point x="198" y="397" type="line"/>
      <point x="203" y="406" type="line"/>
      <point x="208" y="417" type="line"/>
      <point x="224" y="454" type="line"/>
      <point x="242" y="503" type="line"/>
      <point x="210" y="517" type="line"/>
      <point x="191" y="529" type="line"/>
      <point x="160" y="554"/>
      <point x="145" y="580"/>
      <point x="145" y="607" type="curve"/>
      <point x="135" y="609" type="line"/>
      <point x="120" y="592"/>
      <point x="108" y="577"/>
      <point x="101" y="564" type="curve" smooth="yes"/>
      <point x="84" y="531" type="line" smooth="yes"/>
      <point x="79" y="521"/>
      <point x="76" y="512"/>
      <point x="75" y="505" type="curve"/>
      <point x="84" y="489" type="line"/>
      <point x="93" y="477" type="line"/>
      <point x="98" y="473" type="line"/>
      <point x="107" y="434"/>
      <point x="126" y="275"/>
      <point x="126" y="190" type="curve"/>
      <point x="118" y="181" type="line"/>
      <point x="106" y="175" type="line"/>
      <point x="105" y="174"/>
      <point x="103" y="173"/>
      <point x="100" y="173" type="curve" smooth="yes"/>
      <point x="88" y="173" type="line"/>
      <point x="71" y="175" type="line"/>
      <point x="55" y="179" type="line"/>
      <point x="43" y="188"/>
      <point x="36" y="194"/>
      <point x="35" y="198" type="curve"/>
      <point x="29" y="200" type="line"/>
      <point x="24" y="199" type="line"/>
      <point x="20" y="182"/>
      <point x="18" y="165"/>
      <point x="18" y="148" type="curve" smooth="yes"/>
      <point x="18" y="113"/>
      <point x="25" y="82"/>
      <point x="40" y="55" type="curve" smooth="yes"/>
      <point x="73" y="-4"/>
      <point x="106" y="-2"/>
      <point x="159" y="-2" type="curve" smooth="yes"/>
      <point x="217" y="-1" type="line"/>
      <point x="310" y="0" type="line"/>
      <point x="473" y="0" type="line"/>
      <point x="522" y="182" type="line"/>
      <point x="527" y="197" type="line"/>
      <point x="529" y="211" type="line"/>
      <point x="530" y="215"/>
      <point x="531" y="219"/>
      <point x="531" y="224" type="curve"/>
      <point x="532" y="235" type="line"/>
    </contour>
    <contour>
      <point x="397" y="179"/>
      <point x="388" y="178"/>
      <point x="373" y="178" type="curve" smooth="yes"/>
      <point x="344" y="178" type="line"/>
      <point x="312" y="178" type="line"/>
      <point x="273" y="179" type="line"/>
      <point x="215" y="180" type="line"/>
      <point x="245" y="207" type="line"/>
      <point x="255" y="216" type="line"/>
      <point x="264" y="222" type="line"/>
      <point x="287" y="239"/>
      <point x="309" y="248"/>
      <point x="331" y="248" type="curve"/>
      <point x="347" y="243"/>
      <point x="359" y="237"/>
      <point x="368" y="229" type="curve"/>
      <point x="373" y="224"/>
      <point x="376" y="221"/>
      <point x="377" y="219" type="curve"/>
      <point x="385" y="209" type="line"/>
      <point x="392" y="197"/>
      <point x="396" y="188"/>
      <point x="399" y="182" type="curve"/>
    </contour>
    <contour>
      <point x="368.8824375956344" y="502.1527831548158" type="move" name="dotAbove"/>
    </contour>
    <contour>
      <point x="288.44740872862235" y="604.5173705209274" type="move" name="markAbove"/>
    </contour>
    <contour>
      <point x="164.19207317073165" y="-94.23475609756088" type="move" name="markBelow"/>
    </contour>
    <contour>
      <point x="197" y="-96" type="move" name="dotBelow"/>
    </contour>
  </outline>
</glyph>
<glyph name="arTah.fina" format="1">
  <advance width="1195"/>
  <outline>
    <contour>
      <point x="483" y="361" type="line"/>
      <point x="500" y="412"/>
      <point x="512" y="457"/>
      <point x="512" y="532" type="curve" smooth="yes"/>
      <point x="512" y="616"/>
      <point x="512" y="683"/>
      <point x="509" y="750" type="curve"/>
      <point x="595" y="814" type="line"/>
      <point x="532" y="920"/>
      <point x="486" y="1010"/>
      <point x="486" y="1082" type="curve"/>
      <point x="471" y="1091" type="line"/>
      <point x="405" y="1034"/>
      <point x="372" y="1000"/>
      <point x="372" y="924" type="curve" smooth="yes"/>
      <point x="372" y="876"/>
      <point x="402" y="789"/>
      <point x="402" y="414" type="curve" smooth="yes"/>
      <point x="402" y="353"/>
      <point x="398" y="299"/>
      <point x="390" y="256" type="curve"/>
      <point x="351" y="200" type="line"/>
      <point x="247" y="209"/>
      <point x="147" y="220"/>
      <point x="53" y="235" type="curve"/>
      <point x="47" y="222" type="line"/>
      <point x="103" y="155"/>
      <point x="162" y="89"/>
      <point x="224" y="22" type="curve"/>
      <point x="273" y="14" type="line"/>
      <point x="255" y="-96" type="line"/>
      <point x="272" y="-115" type="line"/>
      <point x="304" y="-71"/>
      <point x="334" y="-32"/>
      <point x="364" y="4" type="curve"/>
      <point x="409" y="0"/>
      <point x="446" y="0"/>
      <point x="481" y="0" type="curve" smooth="yes"/>
      <point x="609" y="0"/>
      <point x="707" y="10"/>
      <point x="824" y="26" type="curve"/>
      <point x="934" y="11"/>
      <point x="1047" y="0"/>
      <point x="1181" y="0" type="curve" smooth="yes"/>
      <point x="1195" y="0" type="line"/>
      <point x="1195" y="200" type="line"/>
      <point x="1075" y="200" type="line"/>
      <point x="1093" y="237"/>
      <point x="1106" y="280"/>
      <point x="1106" y="322" type="curve" smooth="yes"/>
      <point x="1106" y="377"/>
      <point x="1091" y="428"/>
      <point x="1059" y="474" type="curve" smooth="yes"/>
      <point x="1011" y="542"/>
      <point x="942" y="577"/>
      <point x="850" y="577" type="curve" smooth="yes"/>
      <point x="723" y="577"/>
      <point x="599" y="479"/>
      <point x="487" y="360" type="curve"/>
    </contour>
    <contour>
      <point x="463" y="197" type="curve"/>
      <point x="580" y="314"/>
      <point x="697" y="395"/>
      <point x="803" y="395" type="curve" smooth="yes"/>
      <point x="925" y="395"/>
      <point x="992" y="297"/>
      <point x="992" y="269" type="curve" smooth="yes"/>
      <point x="992" y="257"/>
      <point x="966" y="245"/>
      <point x="934" y="234" type="curve" smooth="yes"/>
      <point x="849" y="207"/>
      <point x="671" y="197"/>
    </contour>
    <contour>
      <point x="804.311" y="752.764" type="move" name="dotAbove"/>
    </contour>
    <contour>
      <point x="768.526" y="1074.1" type="move" name="markAbove"/>
    </contour>
    <contour>
      <point x="441.93" y="-241.616" type="move" name="markBelow"/>
    </contour>
    <contour>
      <point x="741.198" y="-151.992" type="move" name="dotBelow"/>
    </contour>
  </outline>
</glyph>
<glyph name="di1Dot.below" format="1">
  <advance width="435"/>
  <outline>
    <contour>
      <point x="-104.683" y="-49.9756" type="line"/>
      <point x="-50.6829" y="-87.9756"/>
      <point x="-0.682927" y="-124.976"/>
      <point x="40.3171" y="-160.976" type="curve"/>
      <point x="78.3171" y="-127.976"/>
      <point x="108.317" y="-86.9756"/>
      <point x="130.317" y="-37.9756" type="curve"/>
      <point x="87.3171" y="4.02439"/>
      <point x="40.3171" y="43.0244"/>
      <point x="-12.6829" y="79.0244" type="curve"/>
    </contour>
    <contour>
      <point x="2" y="2" type="move" name="_dotBelow"/>
    </contour>
    <contour>
      <point x="13.6533" y="-321.736" type="move" name="markBelowDot"/>
    </contour>
  </outline>
</glyph>
<glyph name="di3IDot.below" format="1">
  <note>
    ar3IDot.below
  </note>
  <outline>
    <contour>
      <point x="88" y="54"/>
      <point x="69" y="71"/>
      <point x="58" y="84" type="curve"/>
      <point x="36" y="57" type="line"/>
      <point x="1" y="15" type="line"/>
      <point x="-29" y="37" type="line"/>
      <point x="-63" y="66"/>
      <point x="-80" y="81"/>
      <point x="-81" y="84" type="curve"/>
      <point x="-117" y="42" type="line" smooth="yes"/>
      <point x="-138" y="17"/>
      <point x="-151" y="-2"/>
      <point x="-156" y="-13" type="curve"/>
      <point x="-146" y="-24"/>
      <point x="-127" y="-39"/>
      <point x="-99" y="-57" type="curve" smooth="yes"/>
      <point x="-61" y="-82" type="line"/>
      <point x="-40" y="-57" type="line"/>
      <point x="-9" y="-20" type="line"/>
      <point x="2" y="-31"/>
      <point x="21" y="-44"/>
      <point x="46" y="-61" type="curve" smooth="yes"/>
      <point x="79" y="-82" type="line"/>
      <point x="120" y="-33" type="line"/>
      <point x="153" y="8" type="line"/>
      <point x="115" y="34" type="line"/>
    </contour>
    <contour>
      <point x="22" y="-94"/>
      <point x="3" y="-77"/>
      <point x="-7" y="-64" type="curve"/>
      <point x="-43" y="-106" type="line" smooth="yes"/>
      <point x="-64" y="-131"/>
      <point x="-77" y="-150"/>
      <point x="-82" y="-161" type="curve"/>
      <point x="-71" y="-172"/>
      <point x="-52" y="-187"/>
      <point x="-25" y="-205" type="curve" smooth="yes"/>
      <point x="13" y="-230" type="line"/>
      <point x="54" y="-181" type="line"/>
      <point x="87" y="-140" type="line"/>
      <point x="49" y="-114" type="line"/>
    </contour>
    <contour>
      <point x="2.0884146341463747" y="-354.7408536585366" type="move" name="markBelowDot"/>
    </contour>
    <contour>
      <point x="1" y="4" type="move" name="_dotBelow"/>
    </contour>
  </outline>
</glyph>
<glyph name="di4Dot.above" format="1">
  <outline>
    <contour>
      <point x="93.14634146341473" y="296.67073170731715"/>
      <point x="74.14634146341473" y="313.67073170731715"/>
      <point x="63.14634146341473" y="326.67073170731715" type="curve"/>
      <point x="41.14634146341473" y="299.67073170731715" type="line"/>
      <point x="6.146341463414728" y="257.67073170731715" type="line"/>
      <point x="-23.85365853658527" y="279.67073170731715" type="line"/>
      <point x="-57.85365853658527" y="308.67073170731715"/>
      <point x="-74.85365853658527" y="323.67073170731715"/>
      <point x="-75.85365853658527" y="326.67073170731715" type="curve"/>
      <point x="-111.85365853658527" y="284.67073170731715" type="line" smooth="yes"/>
      <point x="-132.85365853658527" y="259.67073170731715"/>
      <point x="-145.85365853658527" y="240.67073170731715"/>
      <point x="-150.85365853658527" y="229.67073170731715" type="curve"/>
      <point x="-140.85365853658527" y="218.67073170731715"/>
      <point x="-121.85365853658527" y="203.67073170731715"/>
      <point x="-93.85365853658527" y="185.67073170731715" type="curve" smooth="yes"/>
      <point x="-55.85365853658527" y="160.67073170731715" type="line"/>
      <point x="-34.85365853658527" y="185.67073170731715" type="line"/>
      <point x="-3.8536585365852716" y="222.67073170731715" type="line"/>
      <point x="7.146341463414728" y="211.67073170731715"/>
      <point x="26.14634146341473" y="198.67073170731715"/>
      <point x="51.14634146341473" y="181.67073170731715" type="curve" smooth="yes"/>
      <point x="84.14634146341473" y="160.67073170731715" type="line"/>
      <point x="125.14634146341473" y="209.67073170731715" type="line"/>
      <point x="158.14634146341473" y="250.67073170731715" type="line"/>
      <point x="120.14634146341473" y="276.67073170731715" type="line"/>
    </contour>
    <contour>
      <point x="107.7439024390244" y="128.53658536585363"/>
      <point x="88.7439024390244" y="145.53658536585363"/>
      <point x="77.7439024390244" y="158.53658536585363" type="curve"/>
      <point x="55.743902439024396" y="131.53658536585363" type="line"/>
      <point x="20.743902439024396" y="89.53658536585363" type="line"/>
      <point x="-9.256097560975604" y="111.53658536585363" type="line"/>
      <point x="-43.256097560975604" y="140.53658536585363"/>
      <point x="-60.256097560975604" y="155.53658536585363"/>
      <point x="-61.256097560975604" y="158.53658536585363" type="curve"/>
      <point x="-97.2560975609756" y="116.53658536585363" type="line" smooth="yes"/>
      <point x="-118.2560975609756" y="91.53658536585363"/>
      <point x="-131.2560975609756" y="72.53658536585363"/>
      <point x="-136.2560975609756" y="61.536585365853625" type="curve"/>
      <point x="-126.2560975609756" y="50.536585365853625"/>
      <point x="-107.2560975609756" y="35.536585365853625"/>
      <point x="-79.2560975609756" y="17.536585365853625" type="curve" smooth="yes"/>
      <point x="-41.256097560975604" y="-7.463414634146375" type="line"/>
      <point x="-20.256097560975604" y="17.536585365853625" type="line"/>
      <point x="10.743902439024396" y="54.536585365853625" type="line"/>
      <point x="21.743902439024396" y="43.536585365853625"/>
      <point x="40.743902439024396" y="30.536585365853625"/>
      <point x="65.7439024390244" y="13.536585365853625" type="curve" smooth="yes"/>
      <point x="98.7439024390244" y="-7.463414634146375" type="line"/>
      <point x="139.7439024390244" y="41.536585365853625" type="line"/>
      <point x="172.7439024390244" y="82.53658536585363" type="line"/>
      <point x="134.7439024390244" y="108.53658536585363" type="line"/>
    </contour>
    <contour>
      <point x="13" y="0" type="move" name="_dotAbove"/>
    </contour>
    <contour>
      <point x="-11" y="463" type="move" name="markAboveDot"/>
    </contour>
  </outline>
</glyph>
<glyph name="di4Dot.below" format="1">
  <outline>
    <contour>
      <point x="93.14634146341473" y="-23.45121951219494"/>
      <point x="74.14634146341473" y="-6.451219512194939"/>
      <point x="63.14634146341473" y="6.548780487805061" type="curve"/>
      <point x="41.14634146341473" y="-20.45121951219494" type="line"/>
      <point x="6.146341463414728" y="-62.45121951219494" type="line"/>
      <point x="-23.85365853658527" y="-40.45121951219494" type="line"/>
      <point x="-57.85365853658527" y="-11.451219512194939"/>
      <point x="-74.85365853658527" y="3.548780487805061"/>
      <point x="-75.85365853658527" y="6.548780487805061" type="curve"/>
      <point x="-111.85365853658527" y="-35.45121951219494" type="line" smooth="yes"/>
      <point x="-132.85365853658527" y="-60.45121951219494"/>
      <point x="-145.85365853658527" y="-79.45121951219494"/>
      <point x="-150.85365853658527" y="-90.45121951219494" type="curve"/>
      <point x="-140.85365853658527" y="-101.45121951219494"/>
      <point x="-121.85365853658527" y="-116.45121951219494"/>
      <point x="-93.85365853658527" y="-134.45121951219494" type="curve" smooth="yes"/>
      <point x="-55.85365853658527" y="-159.45121951219494" type="line"/>
      <point x="-34.85365853658527" y="-134.45121951219494" type="line"/>
      <point x="-3.8536585365852716" y="-97.45121951219494" type="line"/>
      <point x="7.146341463414728" y="-108.45121951219494"/>
      <point x="26.14634146341473" y="-121.45121951219494"/>
      <point x="51.14634146341473" y="-138.45121951219494" type="curve" smooth="yes"/>
      <point x="84.14634146341473" y="-159.45121951219494" type="line"/>
      <point x="125.14634146341473" y="-110.45121951219494" type="line"/>
      <point x="158.14634146341473" y="-69.45121951219494" type="line"/>
      <point x="120.14634146341473" y="-43.45121951219494" type="line"/>
    </contour>
    <contour>
      <point x="107.7439024390244" y="-191.58536585365846"/>
      <point x="88.7439024390244" y="-174.58536585365846"/>
      <point x="77.7439024390244" y="-161.58536585365846" type="curve"/>
      <point x="55.743902439024396" y="-188.58536585365846" type="line"/>
      <point x="20.743902439024396" y="-230.58536585365846" type="line"/>
      <point x="-9.256097560975604" y="-208.58536585365846" type="line"/>
      <point x="-43.256097560975604" y="-179.58536585365846"/>
      <point x="-60.256097560975604" y="-164.58536585365846"/>
      <point x="-61.256097560975604" y="-161.58536585365846" type="curve"/>
      <point x="-97.2560975609756" y="-203.58536585365846" type="line" smooth="yes"/>
      <point x="-118.2560975609756" y="-228.58536585365846"/>
      <point x="-131.2560975609756" y="-247.58536585365846"/>
      <point x="-136.2560975609756" y="-258.58536585365846" type="curve"/>
      <point x="-126.2560975609756" y="-269.58536585365846"/>
      <point x="-107.2560975609756" y="-284.58536585365846"/>
      <point x="-79.2560975609756" y="-302.58536585365846" type="curve" smooth="yes"/>
      <point x="-41.256097560975604" y="-327.58536585365846" type="line"/>
      <point x="-20.256097560975604" y="-302.58536585365846" type="line"/>
      <point x="10.743902439024396" y="-265.58536585365846" type="line"/>
      <point x="21.743902439024396" y="-276.58536585365846"/>
      <point x="40.743902439024396" y="-289.58536585365846"/>
      <point x="65.7439024390244" y="-306.58536585365846" type="curve" smooth="yes"/>
      <point x="98.7439024390244" y="-327.58536585365846" type="line"/>
      <point x="139.7439024390244" y="-278.58536585365846" type="line"/>
      <point x="172.7439024390244" y="-237.58536585365846" type="line"/>
      <point x="134.7439024390244" y="-211.58536585365846" type="line"/>
    </contour>
    <contour>
      <point x="-3" y="6" type="move" name="_dotBelow"/>
    </contour>
    <contour>
      <point x="6" y="-414" type="move" name="markBelowDot"/>
    </contour>
  </outline>
</glyph>
<glyph name="di4Dot.below" format="1">
  <advance width="478"/>
  <outline>
    <contour>
      <point x="44.8263" y="-233.235" type="line"/>
      <point x="84.8263" y="-272.235"/>
      <point x="123.826" y="-311.235"/>
      <point x="161.826" y="-352.235" type="curve"/>
      <point x="200.826" y="-322.235"/>
      <point x="233.826" y="-288.235"/>
      <point x="259.826" y="-250.235" type="curve"/>
      <point x="229.826" y="-209.235"/>
      <point x="191.826" y="-167.235"/>
      <point x="145.826" y="-126.235" type="curve"/>
    </contour>
    <contour>
      <point x="-169.174" y="-242.235" type="line"/>
      <point x="-129.174" y="-281.235"/>
      <point x="-90.1737" y="-320.235"/>
      <point x="-52.1737" y="-361.235" type="curve"/>
      <point x="-13.1737" y="-331.235"/>
      <point x="19.8263" y="-297.235"/>
      <point x="45.8263" y="-259.235" type="curve"/>
      <point x="15.8263" y="-218.235"/>
      <point x="-22.1737" y="-176.235"/>
      <point x="-68.1737" y="-135.235" type="curve"/>
    </contour>
    <contour>
      <point x="9.82634" y="-5.23512" type="line"/>
      <point x="49.8263" y="-44.2351"/>
      <point x="88.8263" y="-83.2351"/>
      <point x="126.826" y="-124.235" type="curve"/>
      <point x="165.826" y="-94.2351"/>
      <point x="198.826" y="-60.2351"/>
      <point x="224.826" y="-22.2351" type="curve"/>
      <point x="194.826" y="18.7649"/>
      <point x="156.826" y="60.7649"/>
      <point x="110.826" y="101.765" type="curve"/>
    </contour>
    <contour>
      <point x="-204.174" y="-14.2351" type="line"/>
      <point x="-164.174" y="-53.2351"/>
      <point x="-125.174" y="-92.2351"/>
      <point x="-87.1737" y="-133.235" type="curve"/>
      <point x="-48.1737" y="-103.235"/>
      <point x="-15.1737" y="-69.2351"/>
      <point x="10.8263" y="-31.2351" type="curve"/>
      <point x="-19.1737" y="9.76488"/>
      <point x="-57.1737" y="51.7649"/>
      <point x="-103.174" y="92.7649" type="curve"/>
    </contour>
    <contour>
      <point x="-1.70667" y="2.53067" type="move" name="_dotBelow"/>
    </contour>
    <contour>
      <point x="5.12" y="-519.709" type="move" name="markBelowDot"/>
    </contour>
  </outline>
</glyph>
<glyph name="diDamma" format="1">
  <advance width="0"/>
  <outline>
    <contour>
      <point x="193.987" y="177.691" type="curve"/>
      <point x="182.987" y="184.691"/>
      <point x="170.987" y="189.691"/>
      <point x="159.987" y="191.691" type="curve"/>
      <point x="163.987" y="215.691"/>
      <point x="165.987" y="234.691"/>
      <point x="165.987" y="256.691" type="curve" smooth="yes"/>
      <point x="165.987" y="329.691"/>
      <point x="131.987" y="388.691"/>
      <point x="74.9867" y="388.691" type="curve" smooth="yes"/>
      <point x="34.9867" y="388.691"/>
      <point x="-1.01333" y="370.691"/>
      <point x="-31.0133" y="345.691" type="curve"/>
      <point x="-70.0133" y="307.691"/>
      <point x="-86.0133" y="264.691"/>
      <point x="-86.0133" y="232.691" type="curve" smooth="yes"/>
      <point x="-86.0133" y="178.691"/>
      <point x="-51.0133" y="141.691"/>
      <point x="23.9867" y="124.691" type="curve"/>
      <point x="-31.0133" y="93.6907"/>
      <point x="-114.013" y="60.6907"/>
      <point x="-204.013" y="26.6907" type="curve"/>
      <point x="-200.013" y="16.6907" type="line"/>
      <point x="-164.013" y="1.69067"/>
      <point x="-127.013" y="-9.30933"/>
      <point x="-91.0133" y="-16.3093" type="curve"/>
      <point x="-22.0133" y="12.6907"/>
      <point x="45.9867" y="44.6907"/>
      <point x="98.9867" y="94.6907" type="curve"/>
      <point x="108.987" y="94.6907"/>
      <point x="119.987" y="89.6907"/>
      <point x="127.987" y="84.6907" type="curve"/>
      <point x="150.987" y="109.691"/>
      <point x="172.987" y="139.691"/>
    </contour>
    <contour>
      <point x="105.987" y="207.691" type="curve"/>
      <point x="40.9867" y="221.691"/>
      <point x="-18.0133" y="240.691"/>
      <point x="-18.0133" y="283.691" type="curve" smooth="yes"/>
      <point x="-18.0133" y="295.691"/>
      <point x="-6.01333" y="312.691"/>
      <point x="31.9867" y="312.691" type="curve" smooth="yes"/>
      <point x="75.9867" y="312.691"/>
      <point x="103.987" y="262.691"/>
    </contour>
    <contour>
      <point x="0.0407763" y="0.639482" type="move" name="_markAbove"/>
    </contour>
    <contour>
      <point x="1.70732" y="-1.85366" type="move" name="_markAboveDot"/>
    </contour>
  </outline>
</glyph>
<glyph name="diFatha" format="1">
  <advance width="0"/>
  <outline>
    <contour>
      <point x="204.183" y="160.878" type="line"/>
      <point x="200.183" y="164.878" type="line"/>
      <point x="85.1829" y="120.878"/>
      <point x="-37.8171" y="80.878"/>
      <point x="-161.817" y="41.878" type="curve"/>
      <point x="-184.817" y="-51.122" type="line"/>
      <point x="-179.817" y="-57.122" type="line"/>
      <point x="-62.8171" y="-19.122"/>
      <point x="54.1829" y="20.878"/>
      <point x="162.183" y="66.878" type="curve"/>
    </contour>
    <contour>
      <point x="0.0407763" y="0.639482" type="move" name="_markAbove"/>
    </contour>
    <contour>
      <point x="0.103659" y="-0.25" type="move" name="_markAboveDot"/>
    </contour>
    <contour>
      <point x="1.70667" y="248.291" type="move" name="markAbove"/>
    </contour>
  </outline>
</glyph>
<glyph name="diGaf.above" format="1">
  <advance width="770"/>
  <outline>
    <contour>
      <point x="296.713" y="166.963" type="line"/>
      <point x="291.713" y="172.963" type="line"/>
      <point x="91.7134" y="113.963"/>
      <point x="-94.2866" y="48.9634"/>
      <point x="-254.287" y="-26.0366" type="curve"/>
      <point x="-266.287" y="-54.0366"/>
      <point x="-275.287" y="-80.0366"/>
      <point x="-281.287" y="-106.037" type="curve"/>
      <point x="-276.287" y="-111.037" type="line"/>
      <point x="-120.287" y="-36.0366"/>
      <point x="54.7134" y="26.9634"/>
      <point x="248.713" y="86.9634" type="curve"/>
    </contour>
    <contour>
      <point x="0" y="0" type="move" name="_gafAbove"/>
    </contour>
  </outline>
</glyph>
<glyph name="diHamza.above" format="1">
  <advance width="0"/>
  <outline>
    <contour>
      <point x="209.316" y="205.974" type="line"/>
      <point x="228.316" y="233.974"/>
      <point x="238.316" y="257.974"/>
      <point x="238.316" y="279.974" type="curve" smooth="yes"/>
      <point x="238.316" y="313.974"/>
      <point x="210.316" y="335.974"/>
      <point x="167.316" y="335.974" type="curve" smooth="yes"/>
      <point x="124.316" y="335.974"/>
      <point x="81.3161" y="315.974"/>
      <point x="43.3161" y="282.974" type="curve" smooth="yes"/>
      <point x="0.316098" y="243.974"/>
      <point x="-20.6839" y="200.974"/>
      <point x="-20.6839" y="169.974" type="curve" smooth="yes"/>
      <point x="-20.6839" y="131.974"/>
      <point x="1.3161" y="106.974"/>
      <point x="40.3161" y="89.9737" type="curve"/>
      <point x="26.3161" y="65.9737"/>
      <point x="13.3161" y="40.9737"/>
      <point x="1.3161" y="14.9737" type="curve"/>
      <point x="13.3161" y="2.97366" type="line"/>
      <point x="68.3161" y="37.9737"/>
      <point x="154.316" y="60.9737"/>
      <point x="263.316" y="74.9737" type="curve"/>
      <point x="279.316" y="101.974"/>
      <point x="293.316" y="128.974"/>
      <point x="304.316" y="155.974" type="curve"/>
      <point x="300.316" y="164.974" type="line"/>
      <point x="265.316" y="162.974"/>
      <point x="236.316" y="161.974"/>
      <point x="199.316" y="161.974" type="curve" smooth="yes"/>
      <point x="114.316" y="161.974"/>
      <point x="68.3161" y="188.974"/>
      <point x="68.3161" y="214.974" type="curve" smooth="yes"/>
      <point x="68.3161" y="229.974"/>
      <point x="95.3161" y="248.974"/>
      <point x="135.316" y="249.974" type="curve"/>
      <point x="149.316" y="249.974"/>
      <point x="161.316" y="245.974"/>
      <point x="169.316" y="235.974" type="curve"/>
      <point x="196.316" y="205.974" type="line"/>
    </contour>
    <contour>
      <point x="0" y="2" type="move" name="_hamzaAbove"/>
    </contour>
    <contour>
      <point x="5.12" y="466.744" type="move" name="markAbove"/>
    </contour>
    <contour>
      <point x="11.9467" y="422.371" type="move" name="markAbove_2"/>
    </contour>
  </outline>
</glyph>
<glyph name="diHamza.below" format="1">
  <advance width="0"/>
  <outline>
    <contour>
      <point x="116.968" y="-174.153" type="line"/>
      <point x="135.968" y="-146.153"/>
      <point x="145.968" y="-122.153"/>
      <point x="145.968" y="-100.153" type="curve" smooth="yes"/>
      <point x="145.968" y="-66.1527"/>
      <point x="117.968" y="-44.1527"/>
      <point x="74.9683" y="-44.1527" type="curve" smooth="yes"/>
      <point x="31.9683" y="-44.1527"/>
      <point x="-11.0317" y="-64.1527"/>
      <point x="-49.0317" y="-97.1527" type="curve" smooth="yes"/>
      <point x="-92.0317" y="-136.153"/>
      <point x="-113.032" y="-179.153"/>
      <point x="-113.032" y="-210.153" type="curve" smooth="yes"/>
      <point x="-113.032" y="-248.153"/>
      <point x="-91.0317" y="-273.153"/>
      <point x="-52.0317" y="-290.153" type="curve"/>
      <point x="-66.0317" y="-314.153"/>
      <point x="-79.0317" y="-339.153"/>
      <point x="-91.0317" y="-365.153" type="curve"/>
      <point x="-79.0317" y="-377.153" type="line"/>
      <point x="-24.0317" y="-342.153"/>
      <point x="61.9683" y="-319.153"/>
      <point x="170.968" y="-305.153" type="curve"/>
      <point x="186.968" y="-278.153"/>
      <point x="200.968" y="-251.153"/>
      <point x="211.968" y="-224.153" type="curve"/>
      <point x="207.968" y="-215.153" type="line"/>
      <point x="172.968" y="-217.153"/>
      <point x="143.968" y="-218.153"/>
      <point x="106.968" y="-218.153" type="curve" smooth="yes"/>
      <point x="21.9683" y="-218.153"/>
      <point x="-24.0317" y="-191.153"/>
      <point x="-24.0317" y="-165.153" type="curve" smooth="yes"/>
      <point x="-24.0317" y="-150.153"/>
      <point x="2.96829" y="-131.153"/>
      <point x="42.9683" y="-130.153" type="curve"/>
      <point x="56.9683" y="-130.153"/>
      <point x="68.9683" y="-134.153"/>
      <point x="76.9683" y="-144.153" type="curve"/>
      <point x="103.968" y="-174.153" type="line"/>
    </contour>
    <contour>
      <point x="-84.6527" y="-374.841" type="move" name="_hamzaBelow"/>
    </contour>
    <contour>
      <point x="1.26927" y="-502.894" type="move" name="markBelow"/>
    </contour>
  </outline>
</glyph>
<glyph name="diKasratan" format="1">
  <advance width="0"/>
  <outline>
    <contour>
      <point x="218.906" y="-107.524" type="line"/>
      <point x="214.906" y="-103.524" type="line"/>
      <point x="99.9063" y="-147.524"/>
      <point x="-23.0937" y="-187.524"/>
      <point x="-147.094" y="-226.524" type="curve"/>
      <point x="-170.094" y="-319.524" type="line"/>
      <point x="-165.094" y="-325.524" type="line"/>
      <point x="-48.0937" y="-287.524"/>
      <point x="68.9063" y="-247.524"/>
      <point x="176.906" y="-201.524" type="curve"/>
    </contour>
    <contour>
      <point x="218.906" y="59.4761" type="line"/>
      <point x="214.906" y="63.4761" type="line"/>
      <point x="99.9063" y="19.4761"/>
      <point x="-23.0937" y="-20.5239"/>
      <point x="-147.094" y="-59.5239" type="curve"/>
      <point x="-170.094" y="-152.524" type="line"/>
      <point x="-165.094" y="-158.524" type="line"/>
      <point x="-48.0937" y="-120.524"/>
      <point x="68.9063" y="-80.5239"/>
      <point x="176.906" y="-34.5239" type="curve"/>
    </contour>
    <contour>
      <point x="7.50387" y="1.826" type="move" name="_markBelow"/>
    </contour>
    <contour>
      <point x="3.85187" y="1.826" type="move" name="_markBelowDot"/>
    </contour>
  </outline>
</glyph>
<glyph name="diLonga.below" format="1">
  <advance width="0"/>
  <outline>
    <contour>
      <point x="-6.37902" y="-6.06146" type="line"/>
      <point x="-79.379" y="-107.061" type="line"/>
      <point x="-58.379" y="-194.061"/>
      <point x="-45.379" y="-271.061"/>
      <point x="-45.379" y="-350.061" type="curve"/>
      <point x="-28.379" y="-356.061" type="line"/>
      <point x="-8.37902" y="-330.061"/>
      <point x="9.62098" y="-303.061"/>
      <point x="24.621" y="-275.061" type="curve"/>
      <point x="28.621" y="-266.061"/>
      <point x="29.621" y="-256.061"/>
      <point x="29.621" y="-245.061" type="curve" smooth="yes"/>
      <point x="29.621" y="-179.061"/>
      <point x="23.621" y="-107.061"/>
      <point x="7.62098" y="-12.0615" type="curve"/>
    </contour>
    <contour>
      <point x="-2" y="-4" type="move" name="_markBelow"/>
    </contour>
    <contour>
      <point x="-2" y="-2" type="move" name="_markBelowDot"/>
    </contour>
  </outline>
</glyph>
<glyph name="diSmallV.above" format="1">
  <note>
    arSmallV.below
  </note>
  <outline>
    <contour>
      <point x="53" y="223" type="line"/>
      <point x="42" y="217" type="line"/>
      <point x="39" y="215"/>
      <point x="36" y="212"/>
      <point x="33" y="209" type="curve"/>
      <point x="24" y="196"/>
      <point x="18" y="185"/>
      <point x="14" y="175" type="curve"/>
      <point x="8" y="156" type="line"/>
      <point x="5" y="142" type="line"/>
      <point x="-2" y="114" type="line"/>
      <point x="-11" y="149" type="line"/>
      <point x="-24" y="180" type="line"/>
      <point x="-31" y="195" type="line"/>
      <point x="-41" y="209" type="line" smooth="yes"/>
      <point x="-46" y="216"/>
      <point x="-53" y="220"/>
      <point x="-60" y="222" type="curve"/>
      <point x="-63" y="212" type="line" smooth="yes"/>
      <point x="-64" y="209"/>
      <point x="-65" y="206"/>
      <point x="-65" y="203" type="curve"/>
      <point x="-67" y="192" type="line"/>
      <point x="-71" y="160" type="line"/>
      <point x="-66" y="156" type="line"/>
      <point x="-60" y="150" type="line" smooth="yes"/>
      <point x="-53" y="143"/>
      <point x="-45" y="129"/>
      <point x="-36" y="108" type="curve" smooth="yes"/>
      <point x="-25" y="80" type="line"/>
      <point x="-15" y="53" type="line"/>
      <point x="-11" y="43" type="line"/>
      <point x="-8" y="31" type="line"/>
      <point x="-3" y="13" type="line"/>
      <point x="1" y="7" type="line"/>
      <point x="6" y="13" type="line"/>
      <point x="14" y="50" type="line"/>
      <point x="29" y="98" type="line" smooth="yes"/>
      <point x="35" y="118"/>
      <point x="40" y="131"/>
      <point x="45" y="138" type="curve" smooth="yes"/>
      <point x="56" y="153" type="line"/>
      <point x="66" y="162" type="line"/>
      <point x="58" y="205" type="line"/>
    </contour>
    <contour>
      <point x="1" y="1" type="move" name="_smallVAbove"/>
    </contour>
  </outline>
</glyph>
<glyph name="diSmallV.below" format="1">
  <note>
    arSmallV.above
  </note>
  <outline>
    <contour>
      <point x="56" y="-8" type="line"/>
      <point x="45" y="-14" type="line"/>
      <point x="42" y="-16"/>
      <point x="39" y="-19"/>
      <point x="36" y="-22" type="curve"/>
      <point x="27" y="-35"/>
      <point x="21" y="-46"/>
      <point x="17" y="-56" type="curve"/>
      <point x="11" y="-75" type="line"/>
      <point x="8" y="-89" type="line"/>
      <point x="1" y="-117" type="line"/>
      <point x="-8" y="-82" type="line"/>
      <point x="-21" y="-51" type="line"/>
      <point x="-28" y="-36" type="line"/>
      <point x="-38" y="-22" type="line" smooth="yes"/>
      <point x="-43" y="-15"/>
      <point x="-50" y="-11"/>
      <point x="-57" y="-9" type="curve"/>
      <point x="-60" y="-19" type="line" smooth="yes"/>
      <point x="-61" y="-22"/>
      <point x="-62" y="-25"/>
      <point x="-62" y="-28" type="curve"/>
      <point x="-64" y="-39" type="line"/>
      <point x="-68" y="-71" type="line"/>
      <point x="-63" y="-75" type="line"/>
      <point x="-57" y="-81" type="line" smooth="yes"/>
      <point x="-50" y="-88"/>
      <point x="-42" y="-102"/>
      <point x="-33" y="-123" type="curve" smooth="yes"/>
      <point x="-22" y="-151" type="line"/>
      <point x="-12" y="-178" type="line"/>
      <point x="-8" y="-188" type="line"/>
      <point x="-5" y="-200" type="line"/>
      <point x="0" y="-218" type="line"/>
      <point x="4" y="-224" type="line"/>
      <point x="9" y="-218" type="line"/>
      <point x="17" y="-181" type="line"/>
      <point x="32" y="-133" type="line" smooth="yes"/>
      <point x="38" y="-113"/>
      <point x="43" y="-100"/>
      <point x="48" y="-93" type="curve" smooth="yes"/>
      <point x="59" y="-78" type="line"/>
      <point x="69" y="-69" type="line"/>
      <point x="61" y="-26" type="line"/>
    </contour>
    <contour>
      <point x="-1" y="0" type="move" name="_smallVBelow"/>
    </contour>
  </outline>
</glyph>
<glyph name="diSmallV.below" format="1">
  <advance width="0"/>
  <outline>
    <contour>
      <point x="151.421" y="5.11117" type="line"/>
      <point x="71.4206" y="-75.8888"/>
      <point x="35.4206" y="-131.889"/>
      <point x="25.4206" y="-168.889" type="curve"/>
      <point x="22.4206" y="-168.889" type="line"/>
      <point x="11.4206" y="-143.889"/>
      <point x="-33.5794" y="-85.8888"/>
      <point x="-118.579" y="0.111171" type="curve"/>
      <point x="-132.579" y="0.111171" type="line"/>
      <point x="-167.579" y="-99.8888" type="line"/>
      <point x="-79.5794" y="-177.889"/>
      <point x="-13.5794" y="-253.889"/>
      <point x="3.42062" y="-299.889" type="curve"/>
      <point x="31.4206" y="-288.889" type="line"/>
      <point x="49.4206" y="-242.889"/>
      <point x="95.4206" y="-166.889"/>
      <point x="183.421" y="-78.8888" type="curve"/>
      <point x="176.421" y="-46.8888"/>
      <point x="168.421" y="-22.8888"/>
      <point x="157.421" y="5.11117" type="curve"/>
    </contour>
    <contour>
      <point x="1.27731" y="1.06112" type="move" name="_smallVBelow"/>
    </contour>
  </outline>
</glyph>
<glyph name="dig4Farsi" format="1">
  <advance width="747"/>
  <outline>
    <contour>
      <point x="145" y="925" type="line"/>
      <point x="58" y="782" type="line"/>
      <point x="158" y="574"/>
      <point x="267" y="251"/>
      <point x="267" y="107" type="curve" smooth="yes"/>
      <point x="267" y="56"/>
      <point x="261" y="17"/>
      <point x="252" y="-21" type="curve"/>
      <point x="283" y="-42" type="line"/>
      <point x="354" y="43"/>
      <point x="391" y="121"/>
      <point x="391" y="194" type="curve" smooth="yes"/>
      <point x="391" y="271"/>
      <point x="372" y="354"/>
      <point x="351" y="439" type="curve"/>
      <point x="367" y="437"/>
      <point x="387" y="437"/>
      <point x="405" y="437" type="curve" smooth="yes"/>
      <point x="472" y="437"/>
      <point x="553" y="466"/>
      <point x="640" y="515" type="curve"/>
      <point x="660" y="570"/>
      <point x="680" y="627"/>
      <point x="698" y="684" type="curve"/>
      <point x="684" y="695" type="line"/>
      <point x="578" y="636"/>
      <point x="486" y="607"/>
      <point x="410" y="607" type="curve" smooth="yes"/>
      <point x="336" y="607"/>
      <point x="290" y="637"/>
      <point x="290" y="661" type="curve" smooth="yes"/>
      <point x="290" y="712"/>
      <point x="364" y="789"/>
      <point x="466" y="789" type="curve" smooth="yes"/>
      <point x="506" y="789"/>
      <point x="546" y="778"/>
      <point x="588" y="753" type="curve"/>
      <point x="613" y="792" type="line"/>
      <point x="580" y="888"/>
      <point x="511" y="938"/>
      <point x="433" y="938" type="curve" smooth="yes"/>
      <point x="345" y="938"/>
      <point x="265" y="874"/>
      <point x="239" y="775" type="curve"/>
      <point x="233" y="775" type="line"/>
      <point x="213" y="829"/>
      <point x="191" y="879"/>
      <point x="169" y="925" type="curve"/>
    </contour>
  </outline>
</glyph>
<glyph name="dig6" format="1">
  <advance width="747"/>
  <outline>
    <contour>
      <point x="63" y="925" type="line"/>
      <point x="62" y="907"/>
      <point x="62" y="892"/>
      <point x="62" y="874" type="curve" smooth="yes"/>
      <point x="62" y="706"/>
      <point x="126" y="655"/>
      <point x="258" y="655" type="curve" smooth="yes"/>
      <point x="323" y="655"/>
      <point x="400" y="665"/>
      <point x="429" y="665" type="curve"/>
      <point x="418" y="605"/>
      <point x="415" y="538"/>
      <point x="415" y="462" type="curve" smooth="yes"/>
      <point x="415" y="294"/>
      <point x="465" y="131"/>
      <point x="532" y="-29" type="curve"/>
      <point x="552" y="-29" type="line"/>
      <point x="673" y="101" type="line"/>
      <point x="587" y="281"/>
      <point x="534" y="462"/>
      <point x="534" y="642" type="curve" smooth="yes"/>
      <point x="534" y="726"/>
      <point x="542" y="804"/>
      <point x="553" y="878" type="curve"/>
      <point x="485" y="878"/>
      <point x="402" y="865"/>
      <point x="297" y="865" type="curve" smooth="yes"/>
      <point x="210" y="865"/>
      <point x="140" y="880"/>
      <point x="117" y="925" type="curve"/>
    </contour>
  </outline>
</glyph>
<glyph name="dig8" format="1">
  <advance width="747"/>
  <outline>
    <contour>
      <point x="342" y="638" type="line"/>
      <point x="404" y="384"/>
      <point x="493" y="164"/>
      <point x="601" y="-23" type="curve"/>
      <point x="612" y="-23" type="line"/>
      <point x="732" y="142" type="line"/>
      <point x="568" y="418"/>
      <point x="472" y="678"/>
      <point x="402" y="925" type="curve"/>
      <point x="372" y="925" type="line"/>
      <point x="339" y="895"/>
      <point x="303" y="857"/>
      <point x="270" y="821" type="curve"/>
      <point x="219" y="615"/>
      <point x="144" y="391"/>
      <point x="26" y="135" type="curve"/>
      <point x="52" y="76"/>
      <point x="80" y="23"/>
      <point x="106" y="-23" type="curve"/>
      <point x="116" y="-23" type="line"/>
      <point x="220" y="224"/>
      <point x="296" y="447"/>
      <point x="332" y="638" type="curve"/>
    </contour>
  </outline>
</glyph>
<glyph name="legLAShort.fina" format="1">
  <advance width="898"/>
  <outline>
    <contour>
      <point x="266" y="1168" type="line"/>
      <point x="285" y="1196"/>
      <point x="295" y="1220"/>
      <point x="295" y="1242" type="curve" smooth="yes"/>
      <point x="295" y="1276"/>
      <point x="267" y="1298"/>
      <point x="224" y="1298" type="curve" smooth="yes"/>
      <point x="181" y="1298"/>
      <point x="138" y="1278"/>
      <point x="100" y="1245" type="curve" smooth="yes"/>
      <point x="57" y="1206"/>
      <point x="36" y="1163"/>
      <point x="36" y="1132" type="curve" smooth="yes"/>
      <point x="36" y="1094"/>
      <point x="58" y="1069"/>
      <point x="97" y="1052" type="curve"/>
      <point x="83" y="1028"/>
      <point x="70" y="1003"/>
      <point x="58" y="977" type="curve"/>
      <point x="70" y="965" type="line"/>
      <point x="125" y="1000"/>
      <point x="211" y="1023"/>
      <point x="320" y="1037" type="curve"/>
      <point x="336" y="1064"/>
      <point x="350" y="1091"/>
      <point x="361" y="1118" type="curve"/>
      <point x="357" y="1127" type="line"/>
      <point x="322" y="1125"/>
      <point x="293" y="1124"/>
      <point x="256" y="1124" type="curve" smooth="yes"/>
      <point x="171" y="1124"/>
      <point x="125" y="1151"/>
      <point x="125" y="1177" type="curve" smooth="yes"/>
      <point x="125" y="1192"/>
      <point x="152" y="1211"/>
      <point x="192" y="1212" type="curve"/>
      <point x="206" y="1212"/>
      <point x="218" y="1208"/>
      <point x="226" y="1198" type="curve"/>
      <point x="253" y="1168" type="line"/>
    </contour>
    <contour>
      <point x="375" y="777" type="line"/>
      <point x="272" y="834"/>
      <point x="193" y="887"/>
      <point x="149" y="933" type="curve"/>
      <point x="135" y="933" type="line"/>
      <point x="115" y="883"/>
      <point x="103" y="840"/>
      <point x="103" y="806" type="curve" smooth="yes"/>
      <point x="103" y="747"/>
      <point x="174" y="678"/>
      <point x="240" y="591" type="curve" smooth="yes"/>
      <point x="368" y="422"/>
      <point x="464" y="283"/>
      <point x="490" y="195" type="curve"/>
      <point x="395" y="128"/>
      <point x="272" y="70"/>
      <point x="126" y="19" type="curve"/>
      <point x="126" y="0" type="line"/>
      <point x="177" y="-17"/>
      <point x="239" y="-27"/>
      <point x="317" y="-27" type="curve" smooth="yes"/>
      <point x="444" y="-27"/>
      <point x="608" y="28"/>
      <point x="656" y="209" type="curve"/>
      <point x="660" y="209" type="line"/>
      <point x="681" y="68"/>
      <point x="754" y="0"/>
      <point x="884" y="0" type="curve" smooth="yes"/>
      <point x="898" y="0" type="line"/>
      <point x="898" y="200" type="line"/>
      <point x="884" y="200" type="line" smooth="yes"/>
      <point x="786" y="200"/>
      <point x="741" y="276"/>
      <point x="741" y="417" type="curve" smooth="yes"/>
      <point x="741" y="668"/>
      <point x="741" y="870"/>
      <point x="730" y="1025" type="curve"/>
      <point x="718" y="1031" type="line"/>
      <point x="686" y="1005"/>
      <point x="650" y="972"/>
      <point x="610" y="933" type="curve"/>
      <point x="623" y="732"/>
      <point x="631" y="575"/>
      <point x="631" y="442" type="curve" smooth="yes"/>
      <point x="631" y="338"/>
      <point x="596" y="273"/>
      <point x="549" y="225" type="curve"/>
      <point x="546" y="226" type="line"/>
      <point x="546" y="398"/>
      <point x="453" y="509"/>
      <point x="331" y="698" type="curve"/>
    </contour>
  </outline>
</glyph>
<glyph name="legLAShort.isol" format="1">
  <advance width="870"/>
  <outline>
    <contour>
      <point x="266" y="1168" type="line"/>
      <point x="285" y="1196"/>
      <point x="295" y="1220"/>
      <point x="295" y="1242" type="curve" smooth="yes"/>
      <point x="295" y="1276"/>
      <point x="267" y="1298"/>
      <point x="224" y="1298" type="curve" smooth="yes"/>
      <point x="181" y="1298"/>
      <point x="138" y="1278"/>
      <point x="100" y="1245" type="curve" smooth="yes"/>
      <point x="57" y="1206"/>
      <point x="36" y="1163"/>
      <point x="36" y="1132" type="curve" smooth="yes"/>
      <point x="36" y="1094"/>
      <point x="58" y="1069"/>
      <point x="97" y="1052" type="curve"/>
      <point x="83" y="1028"/>
      <point x="70" y="1003"/>
      <point x="58" y="977" type="curve"/>
      <point x="70" y="965" type="line"/>
      <point x="125" y="1000"/>
      <point x="211" y="1023"/>
      <point x="320" y="1037" type="curve"/>
      <point x="336" y="1064"/>
      <point x="350" y="1091"/>
      <point x="361" y="1118" type="curve"/>
      <point x="357" y="1127" type="line"/>
      <point x="322" y="1125"/>
      <point x="293" y="1124"/>
      <point x="256" y="1124" type="curve" smooth="yes"/>
      <point x="171" y="1124"/>
      <point x="125" y="1151"/>
      <point x="125" y="1177" type="curve" smooth="yes"/>
      <point x="125" y="1192"/>
      <point x="152" y="1211"/>
      <point x="192" y="1212" type="curve"/>
      <point x="206" y="1212"/>
      <point x="218" y="1208"/>
      <point x="226" y="1198" type="curve"/>
      <point x="253" y="1168" type="line"/>
    </contour>
    <contour>
      <point x="363" y="737" type="line"/>
      <point x="261" y="820"/>
      <point x="186" y="889"/>
      <point x="156" y="937" type="curve"/>
      <point x="143" y="938" type="line"/>
      <point x="111" y="884"/>
      <point x="92" y="834"/>
      <point x="92" y="796" type="curve" smooth="yes"/>
      <point x="92" y="746"/>
      <point x="130" y="686"/>
      <point x="189" y="606" type="curve" smooth="yes"/>
      <point x="370" y="362"/>
      <point x="487" y="193"/>
      <point x="495" y="140" type="curve"/>
      <point x="412" y="102"/>
      <point x="277" y="61"/>
      <point x="71" y="15" type="curve"/>
      <point x="71" y="-10" type="line"/>
      <point x="180" y="-53"/>
      <point x="279" y="-71"/>
      <point x="369" y="-71" type="curve" smooth="yes"/>
      <point x="522" y="-71"/>
      <point x="599" y="-11"/>
      <point x="652" y="83" type="curve" smooth="yes"/>
      <point x="714" y="193"/>
      <point x="739" y="335"/>
      <point x="739" y="499" type="curve" smooth="yes"/>
      <point x="739" y="689" type="line"/>
      <point x="830" y="756" type="line"/>
      <point x="765" y="864"/>
      <point x="719" y="954"/>
      <point x="719" y="998" type="curve" smooth="yes"/>
      <point x="719" y="1009"/>
      <point x="721" y="1016"/>
      <point x="723" y="1021" type="curve"/>
      <point x="706" y="1032" type="line"/>
      <point x="626" y="971"/>
      <point x="605" y="925"/>
      <point x="605" y="870" type="curve" smooth="yes"/>
      <point x="605" y="783"/>
      <point x="632" y="724"/>
      <point x="632" y="341" type="curve" smooth="yes"/>
      <point x="632" y="228"/>
      <point x="597" y="191"/>
      <point x="549" y="163" type="curve"/>
      <point x="549" y="343"/>
      <point x="466" y="436"/>
      <point x="315" y="663" type="curve"/>
    </contour>
  </outline>
</glyph>
<glyph name="legLA.isol" format="1">
  <advance width="485"/>
  <note>
    arLA.isol
  </note>
  <outline>
    <contour>
      <point x="406" y="551"/>
      <point x="392" y="574"/>
      <point x="388" y="599" type="curve"/>
      <point x="384" y="602" type="line"/>
      <point x="380" y="604" type="line"/>
      <point x="350" y="557" type="line" smooth="yes"/>
      <point x="329" y="524"/>
      <point x="315" y="501"/>
      <point x="311" y="489" type="curve"/>
      <point x="323" y="469" type="line"/>
      <point x="332" y="454" type="line"/>
      <point x="334" y="433" type="line"/>
      <point x="334" y="423" type="line"/>
      <point x="333" y="400" type="line"/>
      <point x="330" y="379" type="line"/>
      <point x="318" y="340" type="line"/>
      <point x="238" y="469"/>
      <point x="161" y="556"/>
      <point x="80" y="581" type="curve"/>
      <point x="65" y="558"/>
      <point x="54" y="537"/>
      <point x="47" y="516" type="curve" smooth="yes"/>
      <point x="40" y="495" type="line"/>
      <point x="35" y="478" type="line" smooth="yes"/>
      <point x="33" y="471"/>
      <point x="32" y="460"/>
      <point x="32" y="445" type="curve"/>
      <point x="35" y="426" type="line"/>
      <point x="44" y="401" type="line"/>
      <point x="64" y="380" type="line"/>
      <point x="71" y="375"/>
      <point x="78" y="370"/>
      <point x="86" y="365" type="curve"/>
      <point x="176" y="303" type="line"/>
      <point x="181" y="303"/>
      <point x="186" y="307"/>
      <point x="192" y="316" type="curve" smooth="yes"/>
      <point x="198" y="325" type="line"/>
      <point x="203" y="334" type="line"/>
      <point x="226" y="313"/>
      <point x="246" y="289"/>
      <point x="267" y="261" type="curve"/>
      <point x="239" y="229"/>
      <point x="198" y="203"/>
      <point x="173" y="188" type="curve"/>
      <point x="167" y="185"/>
      <point x="160" y="184"/>
      <point x="151" y="184" type="curve"/>
      <point x="144" y="169"/>
      <point x="137" y="141"/>
      <point x="130" y="100" type="curve" smooth="yes"/>
      <point x="114" y="9" type="line"/>
      <point x="117" y="4" type="line"/>
      <point x="118" y="1" type="line"/>
      <point x="131" y="0" type="line"/>
      <point x="376" y="0" type="line"/>
      <point x="383" y="1"/>
      <point x="388" y="7"/>
      <point x="388" y="11" type="curve" smooth="yes"/>
      <point x="388" y="27" type="line"/>
      <point x="388" y="45" type="line"/>
      <point x="388" y="50" type="line"/>
      <point x="388" y="57" type="line"/>
      <point x="388" y="64" type="line"/>
      <point x="388" y="73" type="line"/>
      <point x="388" y="83" type="line"/>
      <point x="388" y="93" type="line"/>
      <point x="388" y="133" type="line"/>
      <point x="386" y="157" type="line"/>
      <point x="377" y="201"/>
      <point x="372" y="228"/>
      <point x="353" y="268" type="curve"/>
      <point x="374" y="309"/>
      <point x="385" y="330"/>
      <point x="386" y="333" type="curve"/>
      <point x="392" y="346" type="line"/>
      <point x="395" y="355" type="line"/>
      <point x="400" y="376" type="line"/>
      <point x="403" y="386" type="line"/>
      <point x="403" y="387"/>
      <point x="403" y="388"/>
      <point x="403" y="390" type="curve" smooth="yes"/>
      <point x="403" y="391"/>
      <point x="403" y="393"/>
      <point x="404" y="396" type="curve"/>
      <point x="405" y="407" type="line"/>
      <point x="405" y="415" type="line"/>
      <point x="423" y="407" type="line"/>
      <point x="432" y="422"/>
      <point x="442" y="438"/>
      <point x="453" y="459" type="curve" smooth="yes"/>
      <point x="474" y="502" type="line"/>
      <point x="429" y="531" type="line"/>
    </contour>
    <contour>
      <point x="265" y="168" type="line"/>
      <point x="256" y="169" type="line"/>
      <point x="281" y="188" type="line"/>
      <point x="302" y="207" type="line"/>
      <point x="308" y="194" type="line"/>
      <point x="309" y="193"/>
      <point x="313" y="180"/>
      <point x="313" y="176" type="curve" smooth="yes"/>
      <point x="313" y="173"/>
      <point x="313" y="171"/>
      <point x="313" y="170" type="curve"/>
      <point x="284" y="168" type="line"/>
      <point x="279" y="168" type="line"/>
    </contour>
    <contour>
      <point x="366.91463414634154" y="623.6768292682927" type="move" name="markAbove_1"/>
    </contour>
    <contour>
      <point x="167.1310975609756" y="-91.2347560975611" type="move" name="markBelow"/>
    </contour>
    <contour>
      <point x="78" y="595.530487804878" type="move" name="hamzaAbove"/>
    </contour>
    <contour>
      <point x="161" y="-52.46951219512198" type="move" name="hamzaBelow"/>
    </contour>
    <contour>
      <point x="254.36585365853648" y="584.9268292682927" type="move" name="smallVAbove"/>
    </contour>
    <contour>
      <point x="33.798780487804834" y="618.0243902439024" type="move" name="markAbove_2"/>
    </contour>
  </outline>
</glyph>
